<svg xmlns="http://www.w3.org/2000/svg" xmlns:xlink="http://www.w3.org/1999/xlink" width="221" height="136" viewBox="0 0 221 136">
  <defs>
    <clipPath id="clip-helper-1">
      <rect width="221" height="136"/>
    </clipPath>
  </defs>
  <g id="helper-1" clip-path="url(#clip-helper-1)">
    <path id="Path_26" data-name="Path 26" d="M6350.525,2948.532c14.633-.477,22.985,2.18,24.477,7.67s.5,3.334,1.491,12.472,9.712,9.934,11.616,12.473,10.086,9.566,8.541,18.724-3.655,12.524-14.253,17.32-15.115-3.741-15.981,2.7,15.538,11.811,15.981,15.207,2.818,12.278,2.408,23.8-3.265,23.428-5.582,24.888-28.754,8.029-28.754,8.029l-39.163-1.9,22.216-71.948Z" transform="translate(-6234 -2945)" fill="#d0d0d0"/>
    <path id="Path_17" data-name="Path 17" d="M45.96,0S20.146,17.852,12.848,24.27,0,47.431,0,47.431" transform="matrix(0.951, 0.309, -0.309, 0.951, 36.104, 74.01)" fill="none" stroke="#524b4d" stroke-linecap="round" stroke-width="8"/>
    <path id="Path_23" data-name="Path 23" d="M6323.5,5256.086c-.844-2.048-4.356-12.588-10.682-18.043s-12.492-8.556-10.952-17.585,8.976-31.467,21.634-34.173,23.192-3.668,29.751-3.465,15.084,1.557,15.74,5.851-1.771,4.767-2.2,15.115.854,10.382,0,19.613-8.675,15.059-13.543,16.392-5.673,4.339-5.673,7.72-.033,7-3.738,8.575-5.642,3.127-10.035,3.363S6324.35,5258.134,6323.5,5256.086Z" transform="translate(-6232.355 -5173.583)" fill="#ebdfd4"/>
    <path id="Path_16" data-name="Path 16" d="M6277.985,5294.022s27.439-14.163,32.677-25.4,7.887-13.935,5.2-17.724,6.087-12.88,6.087-12.88l8.509-3.875s-3.031,6.513,4,6.82,15.262.264,18.778-2.945a18.263,18.263,0,0,0,4.758-7.033l19.078,9.979s.333,5.352,0,23.739-3.252,29.321-3.252,29.321Z" transform="translate(-6243.569 -5155.022)" fill="#e997bc"/>
    <path id="Path_18" data-name="Path 18" d="M6264.021,5288.252s30.757-8.655,39.154-16.806,30-27.134,30-27.134" transform="translate(-6130.518 -5193.828)" fill="none" stroke="#524b4d" stroke-linecap="round" stroke-width="8"/>
    <g id="Path_20" data-name="Path 20" transform="matrix(-0.375, -0.927, 0.927, -0.375, 13.878, 131.464)" fill="none">
      <path d="M3.09.047C5.6-.342,6.9,1.755,6.9,3.861s-.924,4.3-3.031,4.3S0,6.832,0,4.726.58.436,3.09.047Z" stroke="none"/>
      <path d="M 3.68053126335144 -9.5367431640625e-07 C 3.491804838180542 -9.5367431640625e-07 3.294905662536621 0.01521968841552734 3.090059995651245 0.04699277877807617 C 0.5798201560974121 0.4363527297973633 0 2.619292736053467 0 4.72579288482666 C 0 6.832293033599854 1.767000198364258 8.163252830505371 3.873510122299194 8.163252830505371 C 5.980010032653809 8.163252830505371 6.904220104217529 5.967652797698975 6.904220104217529 3.86115288734436 C 6.904220104217529 1.926551818847656 5.804513931274414 -9.5367431640625e-07 3.68053126335144 -9.5367431640625e-07 M 3.680530071258545 -3.999997138977051 C 5.913050174713135 -3.999997138977051 7.958899974822998 -2.975327491760254 9.293479919433594 -1.188736915588379 C 10.33218002319336 0.2017626762390137 10.90422058105469 1.995182991027832 10.90422058105469 3.86115288734436 C 10.90422058105469 5.712402820587158 10.43949031829834 7.495462894439697 9.595640182495117 8.881853103637695 C 8.326350212097168 10.96722316741943 6.240710258483887 12.16325283050537 3.873510122299194 12.16325283050537 C 1.879439830780029 12.16325283050537 -0.006040096282958984 11.49768257141113 -1.435590267181396 10.28916263580322 C -3.089279651641846 8.891153335571289 -3.999999523162842 6.915382862091064 -3.999999523162842 4.72579288482666 C -3.999999523162842 2.803282737731934 -3.647880077362061 1.210362911224365 -2.923519611358643 -0.1440072059631348 C -1.823799610137939 -2.200197219848633 0.09412002563476562 -3.536147117614746 2.476960182189941 -3.905736923217773 C 2.880259990692139 -3.968287467956543 3.285170078277588 -3.999997138977051 3.680530071258545 -3.999997138977051 Z" stroke="none" fill="#524b4d"/>
    </g>
    <path id="Path_21" data-name="Path 21" d="M6297.709,5238.879c23.212,7.083,4.8-15.728,9.865-32.276s36.418-29.213,47.9-25.752,16.277,7.322,15.606,16.548-1.015,30.8,1.294,36.409,10.712,5.194,18.176,0-.14-15.859-5.559-17.277a12.916,12.916,0,0,0-12.617,3.825" transform="translate(-6235.972 -5174.553)" fill="none" stroke="#524b4d" stroke-linecap="round" stroke-width="7"/>
    <path id="Path_22" data-name="Path 22" d="M6317.055,5235.931c12.846,14.118,25.967.415,26.588-2.4" transform="translate(-6228.521 -5154.041)" fill="none" stroke="#cc81a2" stroke-linecap="round" stroke-width="7"/>
    <path id="Path_24" data-name="Path 24" d="M6316.457,5230.983c1.353,5.847,8.708,19.719,24.584,7.232" transform="translate(-6228.751 -5183.435)" fill="none" stroke="#524b4d" stroke-linecap="round" stroke-width="5"/>
    <ellipse id="Ellipse_34" data-name="Ellipse 34" cx="4.156" cy="5.541" rx="4.156" ry="5.541" transform="translate(91.84 23.782) rotate(11)" fill="#524b4d"/>
    <ellipse id="Ellipse_35" data-name="Ellipse 35" cx="4.156" cy="5.541" rx="4.156" ry="5.541" transform="translate(110.973 27.986) rotate(11)" fill="#524b4d"/>
    <path id="Path_25" data-name="Path 25" d="M6347.2,5241.553c5.033,13.961,0,43.006,0,43.006" transform="translate(-6216.91 -5150.951)" fill="none" stroke="#e6acc5" stroke-linecap="round" stroke-width="8"/>
    <g id="Path_19" data-name="Path 19" transform="matrix(0.891, 0.454, -0.454, 0.891, 206.588, 35.689)" fill="none">
      <path d="M4.307.065c3.5-.543,5.316,2.38,5.316,5.316s-1.288,6-4.224,6S0,9.522,0,6.586.808.608,4.307.065Z" stroke="none"/>
      <path d="M 5.129506587982178 -1.9073486328125e-06 C 4.866481304168701 -1.9073486328125e-06 4.592071056365967 0.021209716796875 4.306580066680908 0.06549167633056641 C 0.8080902099609375 0.6081418991088867 0 3.650471687316895 0 6.5862717628479 C 0 9.52208137512207 2.462650299072266 11.3770112991333 5.398449897766113 11.3770112991333 C 8.334250450134277 11.3770112991333 9.622320175170898 8.317041397094727 9.622320175170898 5.381231784820557 C 9.622320175170898 2.685004234313965 8.08967399597168 -1.9073486328125e-06 5.129506587982178 -1.9073486328125e-06 M 5.129509925842285 -3.999998092651367 C 7.777740001678467 -3.999998092651367 10.1078405380249 -2.833118438720703 11.69058990478516 -0.7143087387084961 C 12.93628025054932 0.9532918930053711 13.6223201751709 3.118071556091309 13.6223201751709 5.381231784820557 C 13.6223201751709 7.676551818847656 13.0561695098877 9.87080192565918 12.02815055847168 11.55977153778076 C 10.55156993865967 13.98568153381348 8.135140419006348 15.37701225280762 5.398449897766113 15.37701225280762 C 2.99107027053833 15.37701225280762 0.724370002746582 14.58159160614014 -0.984100341796875 13.13727188110352 C -2.928930282592773 11.49313163757324 -4 9.166611671447754 -4 6.5862717628479 C -4 4.17246150970459 -3.57013988494873 2.195362091064453 -2.685859680175781 0.5419816970825195 C -2.058609962463379 -0.6308088302612305 -1.213600158691406 -1.603608131408691 -0.1743097305297852 -2.349398612976074 C 0.9321298599243164 -3.143368721008301 2.233439922332764 -3.660778045654297 3.693470001220703 -3.887238502502441 C 4.175879955291748 -3.962058067321777 4.659019947052002 -3.999998092651367 5.129509925842285 -3.999998092651367 Z" stroke="none" fill="#524b4d"/>
    </g>
  </g>
</svg>
