<svg xmlns="http://www.w3.org/2000/svg" xmlns:xlink="http://www.w3.org/1999/xlink" width="221" height="136" viewBox="0 0 221 136">
  <defs>
    <clipPath id="clip-helper-2">
      <rect width="221" height="136"/>
    </clipPath>
  </defs>
  <g id="helper-2" clip-path="url(#clip-helper-2)">
    <path id="Path_26" data-name="Path 26" d="M6350.956,2956.2c14.633-.477,16.892,1.662,18.383,7.152s6.167-3.818,7.154,5.32,8.373,15.895,10.277,18.434,12.079,7.927,10.533,17.086-3.655,12.524-14.253,17.32-15.115-3.741-15.981,2.7,18.712,17.57,19.155,20.966,2.818,12.278,2.408,23.8,8.1,19.472,5.78,20.932-43.942,1.9-43.942,1.9l-39.163-1.9,22.216-71.948Z" transform="translate(-6209 -2945)" fill="#d0d0d0"/>
    <path id="Path_17" data-name="Path 17" d="M45.96,0S20.146,17.852,12.848,24.27-17.07-17.412-17.07-17.412" transform="matrix(0.951, 0.309, -0.309, 0.951, 61.104, 74.01)" fill="none" stroke="#524b4d" stroke-linecap="round" stroke-width="8"/>
    <path id="Path_23" data-name="Path 23" d="M6347.235,5256.086c.844-2.048,4.356-12.588,10.682-18.043s12.492-8.556,10.952-17.585,8.871-26.962-3.788-29.668-31.627-6.548-38.186-6.345-15.008,5.3-15.665,9.594-7.716-.6-7.29,9.747-.854,10.382,0,19.613,8.675,15.059,13.543,16.392,5.673,4.339,5.673,7.72.033,7,3.738,8.575,5.642,3.127,10.035,3.363S6346.391,5258.134,6347.235,5256.086Z" transform="translate(-6207.355 -5173.583)" fill="#ebdfd4"/>
    <path id="Path_16" data-name="Path 16" d="M6293.116,5294.022s5.865-15.192,11.1-26.432,2.625-8.3,7.509-17.163,10.22-12.411,10.22-12.411l8.509-3.875s-3.031,6.513,4,6.82,15.262.264,18.778-2.945a18.263,18.263,0,0,0,4.758-7.033l19.078,9.979s6.858,4.326,6.525,22.714,6.437,30.347,6.437,30.347Z" transform="translate(-6218.569 -5155.022)" fill="#e997bc"/>
    <path id="Path_18" data-name="Path 18" d="M6264.021,5288.252s44.392,9.187,45.143,14.229-38.618,17.539-38.618,17.539" transform="translate(-6105.518 -5193.828)" fill="none" stroke="#524b4d" stroke-linecap="round" stroke-width="8"/>
    <g id="Path_20" data-name="Path 20" transform="matrix(-0.375, -0.927, 0.927, -0.375, 46.878, 49.909)" fill="none">
      <path d="M3.09.047C5.6-.342,6.9,1.755,6.9,3.861s-.924,4.3-3.031,4.3S0,6.832,0,4.726.58.436,3.09.047Z" stroke="none"/>
      <path d="M 3.68053126335144 -9.5367431640625e-07 C 3.491804838180542 -9.5367431640625e-07 3.294905662536621 0.01521968841552734 3.090059995651245 0.04699277877807617 C 0.5798201560974121 0.4363527297973633 0 2.619292736053467 0 4.72579288482666 C 0 6.832293033599854 1.767000198364258 8.163252830505371 3.873510122299194 8.163252830505371 C 5.980010032653809 8.163252830505371 6.904220104217529 5.967652797698975 6.904220104217529 3.86115288734436 C 6.904220104217529 1.926551818847656 5.804513931274414 -9.5367431640625e-07 3.68053126335144 -9.5367431640625e-07 M 3.680530071258545 -3.999997138977051 C 5.913050174713135 -3.999997138977051 7.958899974822998 -2.975327491760254 9.293479919433594 -1.188736915588379 C 10.33218002319336 0.2017626762390137 10.90422058105469 1.995182991027832 10.90422058105469 3.86115288734436 C 10.90422058105469 5.712402820587158 10.43949031829834 7.495462894439697 9.595640182495117 8.881853103637695 C 8.326350212097168 10.96722316741943 6.240710258483887 12.16325283050537 3.873510122299194 12.16325283050537 C 1.879439830780029 12.16325283050537 -0.006040096282958984 11.49768257141113 -1.435590267181396 10.28916263580322 C -3.089279651641846 8.891153335571289 -3.999999523162842 6.915382862091064 -3.999999523162842 4.72579288482666 C -3.999999523162842 2.803282737731934 -3.647880077362061 1.210362911224365 -2.923519611358643 -0.1440072059631348 C -1.823799610137939 -2.200197219848633 0.09412002563476562 -3.536147117614746 2.476960182189941 -3.905736923217773 C 2.880259990692139 -3.968287467956543 3.285170078277588 -3.999997138977051 3.680530071258545 -3.999997138977051 Z" stroke="none" fill="#524b4d"/>
    </g>
    <path id="Path_21" data-name="Path 21" d="M6299.053,5247.082c23.212,7.082,3.459-23.931,8.521-40.479s26.549-25.48,38.034-22.02,32.066,6.888,31.4,16.113-10.678,32.662-8.37,38.272a7.16,7.16,0,0,0,.7,1.274c2.7,4.262,7.382,3.582,14.36-1.274,7.464-5.193,2.978-14.541-2.441-15.959s-7.435-.539-9.765,2.1" transform="translate(-6210.972 -5174.553)" fill="none" stroke="#524b4d" stroke-linecap="round" stroke-width="7"/>
    <path id="Path_22" data-name="Path 22" d="M6317.055,5235.931c12.846,14.118,25.967.415,26.588-2.4" transform="translate(-6203.521 -5154.041)" fill="none" stroke="#cc81a2" stroke-linecap="round" stroke-width="7"/>
    <path id="Path_24" data-name="Path 24" d="M6316.457,5230.983c1.353,5.847,8.708,19.719,24.584,7.232" transform="translate(-7819.479 -2017.112) rotate(-25)" fill="none" stroke="#524b4d" stroke-linecap="round" stroke-width="5"/>
    <ellipse id="Ellipse_34" data-name="Ellipse 34" cx="4.156" cy="5.541" rx="4.156" ry="5.541" transform="translate(114.891 29.395) rotate(-9)" fill="#524b4d"/>
    <ellipse id="Ellipse_35" data-name="Ellipse 35" cx="4.156" cy="5.541" rx="4.156" ry="5.541" transform="translate(132.369 29.301) rotate(-5)" fill="#524b4d"/>
    <path id="Path_25" data-name="Path 25" d="M6347.2,5241.553c5.033,13.961,8.289,41.65,8.289,41.65" transform="translate(-6191.91 -5150.951)" fill="none" stroke="#e6acc5" stroke-linecap="round" stroke-width="8"/>
  </g>
</svg>
