<svg xmlns="http://www.w3.org/2000/svg" xmlns:xlink="http://www.w3.org/1999/xlink" width="180" height="181" viewBox="0 0 180 181">
  <defs>
    <clipPath id="clip-helper-5">
      <rect width="180" height="181"/>
    </clipPath>
  </defs>
  <g id="helper-5" clip-path="url(#clip-helper-5)">
    <path id="Path_18" data-name="Path 18" d="M6333.173,5288.252s-9.457-14.641-17.854-22.792-17.511-42.848-17.511-42.848" transform="translate(-6273.664 -5148.828)" fill="none" stroke="#524b4d" stroke-linecap="round" stroke-width="8"/>
    <path id="Path_26" data-name="Path 26" d="M6350.525,2948.532c14.633-.477,24.98,11,25.968,20.142s3,12.992,5.9,20.105,10.6,26.56,0,31.356-7.943,6.758-4.66,21.533,20.758,38.679,18.441,40.139-45.709,10.005-45.709,10.005l-39.163-1.9,22.216-71.948Z" transform="translate(-6246.168 -2892.011)" fill="#d0d0d0"/>
    <path id="Path_17" data-name="Path 17" d="M45.96,47.432S14.221,57.842,7.881,60.921-20.388,99.493-20.388,99.493" transform="matrix(-0.951, 0.309, -0.309, -0.951, 171.567, 164.119)" fill="none" stroke="#524b4d" stroke-linecap="round" stroke-width="8"/>
    <path id="Path_23" data-name="Path 23" d="M6347.236,5256.086c.844-2.048,4.356-12.588,10.682-18.043s12.492-8.556,10.952-17.585,1.706-29.8-10.952-32.511-9.917-7.6-16.477-7.4-31.716,7.957-32.372,12.25-5.554.638-5.127,10.987-.854,10.382,0,19.613,8.675,15.059,13.543,16.392,5.673,4.339,5.673,7.72.033,7,3.738,8.575,5.642,3.127,10.035,3.363S6346.391,5258.134,6347.236,5256.086Z" transform="translate(-6245.372 -5128.583)" fill="#ebdfd4"/>
    <path id="Path_16" data-name="Path 16" d="M6355.094,5292.3a253.116,253.116,0,0,1-13.661-24.413c-5.238-11.24-4.775-13.2-2.086-16.991s-6.087-12.88-6.087-12.88l-8.509-3.875s1.663,3.567-5.372,3.875c-4.522.2-8.17,3.2-12.406,2.29a10.885,10.885,0,0,1-5-2.29,18.263,18.263,0,0,1-4.758-7.033l-19.078,9.979a165.492,165.492,0,0,1-5.3,31.5,255.61,255.61,0,0,1-8.017,24.625Z" transform="translate(-6218.624 -5110.022)" fill="#e997bc"/>
    <g id="Path_20" data-name="Path 20" transform="matrix(-0.921, -0.391, 0.391, -0.921, 164.231, 59.732)" fill="none">
      <path d="M3.09,8.116C5.6,8.506,6.9,6.409,6.9,4.3S5.98,0,3.874,0,0,1.331,0,3.437.58,7.727,3.09,8.116Z" stroke="none"/>
      <path d="M 3.680539846420288 8.163262367248535 C 5.804521083831787 8.163314819335938 6.904218673706055 6.236709594726562 6.904218673706055 4.302108764648438 C 6.904218673706055 2.195608615875244 5.97999906539917 8.584442184655927e-06 3.873498916625977 8.584442184655927e-06 C 1.766998887062073 8.584442184655927e-06 -1.139984078690759e-06 1.330958604812622 -1.139984078690759e-06 3.437468528747559 C -1.139984078690759e-06 5.543968677520752 0.5798188447952271 7.726908683776855 3.090068817138672 8.116268157958984 C 3.294914484024048 8.148041725158691 3.491813659667969 8.163257598876953 3.680539846420288 8.163262367248535 M 3.680638790130615 12.16325855255127 L 3.680538892745972 12.16325855255127 C 3.285178899765015 12.16325855255127 2.880268812179565 12.13154888153076 2.477038860321045 12.06901836395264 C 0.09412886202335358 11.69940853118896 -1.823801159858704 10.36345863342285 -2.923521041870117 8.307268142700195 C -3.647881031036377 6.952898502349854 -4.000000953674316 5.359978675842285 -4.000000953674316 3.437468528747559 C -4.000000953674316 1.247878551483154 -3.08928108215332 -0.7279013991355896 -1.435591101646423 -2.125901460647583 C -0.006041139829903841 -3.334431409835815 1.879428863525391 -3.999991416931152 3.873498916625977 -3.999991416931152 C 6.24069881439209 -3.999991416931152 8.326338768005371 -2.803971529006958 9.59562873840332 -0.718601405620575 C 10.43948841094971 0.6677985787391663 10.90421867370605 2.450848579406738 10.90421867370605 4.302108764648438 C 10.90421867370605 6.167998790740967 10.33216857910156 7.96138858795166 9.293448448181152 9.351938247680664 C 7.95884895324707 11.13856887817383 5.913058757781982 12.16325855255127 3.680638790130615 12.16325855255127 Z" stroke="none" fill="#524b4d"/>
    </g>
    <path id="Path_21" data-name="Path 21" d="M6311.863,5243.779c17.361-4.322-9.351-20.627-4.289-37.175s26.29-28.18,37.775-24.718,26.406,6.289,25.735,15.514-1.015,30.8,1.294,36.409,3.069,7.849,10.533,2.655,1.175-12.965-4.244-14.383-3.959-4.361-6.29-1.724" transform="translate(-5139.645 -6244.084) rotate(11)" fill="none" stroke="#524b4d" stroke-linecap="round" stroke-width="7"/>
    <path id="Path_24" data-name="Path 24" d="M6339.321,5227.127c3.42,8.843-6.947,31.981-24.472,6.177" transform="matrix(0.985, 0.174, -0.174, 0.985, -5230.937, -6160.159)" fill="none" stroke="#524b4d" stroke-linecap="round" stroke-width="5"/>
    <ellipse id="Ellipse_34" data-name="Ellipse 34" cx="4.156" cy="5.541" rx="4.156" ry="5.541" transform="translate(103.404 77.002) rotate(169)" fill="#524b4d"/>
    <ellipse id="Ellipse_35" data-name="Ellipse 35" cx="4.156" cy="5.541" rx="4.156" ry="5.541" transform="translate(84.212 81.205) rotate(169)" fill="#524b4d"/>
    <path id="Path_25" data-name="Path 25" d="M6394.625,5234.085c13.452,2.014,7.848,11.764,13.1,28.828,1.738,5.65,10.035,23.323,11.656,26.979" transform="translate(-6286.718 -5105.951)" fill="none" stroke="#e6acc5" stroke-linecap="round" stroke-width="8"/>
    <g id="Path_19" data-name="Path 19" transform="translate(29.112 64.1) rotate(123)" fill="none">
      <path d="M4.307,11.312c3.5.543,5.316-2.38,5.316-5.316S8.334,0,5.4,0,0,1.855,0,4.791.808,10.769,4.307,11.312Z" stroke="none"/>
      <path d="M 5.129520416259766 11.37702751159668 C 8.089694976806641 11.37710380554199 9.622330665588379 8.692019462585449 9.622321128845215 5.995791912078857 C 9.622321128845215 3.059992074966431 8.334260940551758 1.207534751301864e-05 5.39845085144043 2.075347993013565e-06 C 2.462651014328003 2.075347993013565e-06 -8.958740181697067e-06 1.854942083358765 1.04125979305536e-06 4.790741920471191 C 1.04125979305536e-06 7.72655200958252 0.8080910444259644 10.76888179779053 4.306581020355225 11.31153202056885 C 4.592072486877441 11.35581493377686 4.866494178771973 11.37702083587646 5.129520416259766 11.37702751159668 M 5.129641056060791 15.37703227996826 L 5.129371166229248 15.37703227996826 C 4.658901214599609 15.37701225280762 4.175801277160645 15.33907222747803 3.693500995635986 15.26427173614502 C 2.233441114425659 15.03780174255371 0.9321310520172119 14.52039241790771 -0.1743089556694031 13.72642230987549 C -1.213598966598511 12.98063182830811 -2.058609008789062 12.00783252716064 -2.685858964920044 10.83504199981689 C -3.570138931274414 9.181661605834961 -3.999999046325684 7.204552173614502 -3.999999046325684 4.790741920471191 C -4.000009059906006 2.21041202545166 -2.928938865661621 -0.116117924451828 -0.9841089844703674 -1.760247945785522 C 0.7243710160255432 -3.204577922821045 2.991070985794067 -3.999997854232788 5.39845085144043 -3.999997854232788 C 8.135161399841309 -3.999987840652466 10.55159091949463 -2.60864782333374 12.028151512146 -0.1827379316091537 C 13.05617141723633 1.506232023239136 13.62232112884521 3.700472116470337 13.62232112884521 5.995791912078857 C 13.62233066558838 8.258842468261719 12.93627071380615 10.42359161376953 11.69053077697754 12.0912618637085 C 10.10776138305664 14.21012210845947 7.777720928192139 15.37703227996826 5.129641056060791 15.37703227996826 Z" stroke="none" fill="#524b4d"/>
    </g>
    <path id="Path_22" data-name="Path 22" d="M6343.643,5235.931c-12.846,14.118-25.967.415-26.588-2.4" transform="translate(-6238.608 -5111.32)" fill="none" stroke="#cc81a2" stroke-linecap="round" stroke-width="7"/>
    <path id="Path_27" data-name="Path 27" d="M6809.238,2848.689c-2.415-.651-4.082-21.077-1.149-27.209s19.295,14.294,18.912,17.36c0,4.392-28.746-1.619-26.576-5.1s22.859-12.532,25.676-11.248S6811.652,2849.34,6809.238,2848.689Z" transform="translate(-6776.163 -2810.494)" fill="none" stroke="#fba208" stroke-width="4"/>
    <path id="Path_28" data-name="Path 28" d="M10.13.012C7.391.664,5.5,21.089,8.827,27.221S30.714,12.927,30.279,9.861c0-4.392-32.608,1.619-30.146,5.1s25.93,12.532,29.125,11.248S12.869-.639,10.13.012Z" transform="matrix(0.766, 0.643, -0.643, 0.766, 135.914, 21.893)" fill="none" stroke="#fba208" stroke-width="4"/>
    <path id="Path_29" data-name="Path 29" d="M5.559,17.647c-1.5-.405-2.54-13.12-.715-16.937s12.011,8.9,11.772,10.806c0,2.734-17.894-1.008-16.543-3.172s14.229-7.8,15.982-7S7.062,18.053,5.559,17.647Z" transform="translate(106.597 37.68) rotate(-177)" fill="none" stroke="#fba208" stroke-width="3"/>
    <path id="Path_30" data-name="Path 30" d="M6809.238,2848.689c-2.415-.651-4.082-21.077-1.149-27.209s19.295,14.294,18.912,17.36c0,4.392-28.746-1.619-26.576-5.1s22.859-12.532,25.676-11.248S6811.652,2849.34,6809.238,2848.689Z" transform="translate(-6777.586 -2810.494)" fill="none" stroke="#fbc908" stroke-width="3"/>
    <path id="Path_31" data-name="Path 31" d="M5.559,17.647c-1.5-.405-2.54-13.12-.715-16.937s12.011,8.9,11.772,10.806c0,2.734-17.894-1.008-16.543-3.172s14.229-7.8,15.982-7S7.062,18.053,5.559,17.647Z" transform="translate(106.597 35.727) rotate(-177)" fill="none" stroke="#fbc908" stroke-width="2"/>
    <path id="Path_32" data-name="Path 32" d="M10.13.012C7.391.664,5.5,21.089,8.827,27.221S30.714,12.927,30.279,9.861c0-4.392-32.608,1.619-30.146,5.1s25.93,12.532,29.125,11.248S12.869-.639,10.13.012Z" transform="matrix(0.766, 0.643, -0.643, 0.766, 134.674, 20.893)" fill="none" stroke="#fbc908" stroke-width="3"/>
  </g>
</svg>
