<svg xmlns="http://www.w3.org/2000/svg" xmlns:xlink="http://www.w3.org/1999/xlink" width="512" height="512" viewBox="0 0 512 512">
  <defs>
    <clipPath id="clip-klpt-logo-circle">
      <rect width="512" height="512"/>
    </clipPath>
  </defs>
  <g id="klpt-logo-circle" clip-path="url(#clip-klpt-logo-circle)">
    <g id="Group_12" data-name="Group 12">
      <g id="Group_1" data-name="Group 1" transform="matrix(1, 0.017, -0.017, 1, 32.22, 311.65)">
        <g id="Intersection_3" data-name="Intersection 3" transform="translate(0 0)" fill="#0077c1">
          <path d="M 223.8914947509766 178.197998046875 C 207.5316162109375 178.197998046875 191.1811828613281 176.549560546875 175.2943420410156 173.2984313964844 C 159.8099365234375 170.1298675537109 144.579833984375 165.4021911621094 130.0270538330078 159.2467193603516 C 115.7387466430664 153.2036895751953 101.9569625854492 145.7230377197266 89.06455993652344 137.0125885009766 C 76.29990386962891 128.3904113769531 64.29283905029297 118.4837493896484 53.3769645690918 107.56787109375 C 42.46627807617188 96.65818786621094 32.55927658081055 84.651123046875 23.93118286132812 71.88021850585938 C 15.22237110137939 58.98918533325195 7.742058277130127 45.20740509033203 1.698120951652527 30.91771697998047 C 0.6275896430015564 28.38665580749512 -0.4151290953159332 25.79634284973145 -1.401004076004028 23.21878051757812 L -1.730222821235657 22.35809326171875 L -1.111285328865051 21.67540550231934 L 19.45296478271484 -1.007501006126404 L 19.97859001159668 -1.587282180786133 L 20.75483894348145 -1.487844705581665 L 54.04340362548828 2.776186466217041 L 54.92502593994141 2.889123916625977 L 55.24937057495117 3.716655254364014 C 82.34062194824219 72.83875274658203 150.3419647216797 119.280158996582 224.4619903564453 119.280158996582 C 226.1375579833984 119.280158996582 227.8338470458984 119.2569351196289 229.5037841796875 119.2111587524414 L 232.0947418212891 119.1401214599609 L 230.8654632568359 121.4219970703125 L 215.6636962890625 149.6405639648438 L 234.7565307617188 175.6171264648438 L 236.428466796875 177.891845703125 L 233.6076202392578 178.0042877197266 C 230.3825531005859 178.1328125 227.1135864257812 178.197998046875 223.8914947509766 178.197998046875 Z" stroke="none"/>
          <path d="M 223.8914947509766 176.697998046875 C 227.1118774414062 176.697998046875 230.3317718505859 176.6336517333984 233.5478668212891 176.5054626464844 L 213.8931579589844 149.7644348144531 L 229.5449066162109 120.7105941772461 C 227.8545532226562 120.7569351196289 226.1632843017578 120.780158996582 224.4619903564453 120.780158996582 C 146.9669647216797 120.780158996582 80.55977630615234 72.40562438964844 53.85280990600586 4.264030456542969 L 20.56424522399902 -9.765625463842298e-07 L -4.089355570613407e-06 22.68290519714355 C 0.9825584292411804 25.25174903869629 2.009558439254761 27.80343627929688 3.079620838165283 30.33340454101562 C 9.085620880126953 44.53334426879883 16.51887130737305 58.22877883911133 25.17412185668945 71.04049682617188 C 33.74730682373047 83.73015594482422 43.59252548217773 95.66312408447266 54.4376220703125 106.5072174072266 C 65.28168487548828 117.3512802124023 77.21368408203125 127.1975021362305 89.90431213378906 135.7696838378906 C 102.7150268554688 144.4249420166016 116.410530090332 151.8591613769531 130.6114044189453 157.8652191162109 C 145.0735321044922 163.9823455810547 160.2081909179688 168.6802825927734 175.5950622558594 171.8289031982422 C 191.3823089599609 175.0596313476562 207.6318969726562 176.697998046875 223.8914947509766 176.697998046875 M 223.8914947509766 179.697998046875 C 207.4308471679688 179.697998046875 190.9792175292969 178.039306640625 174.9935913085938 174.7680053710938 C 159.4122161865234 171.5795593261719 144.0866851806641 166.8222503662109 129.4427185058594 160.6282196044922 C 115.0652160644531 154.5474700927734 101.1974945068359 147.0201873779297 88.22480773925781 138.2554931640625 C 75.38114929199219 129.5799407958984 63.29971313476562 119.6119384765625 52.31630706787109 108.628532409668 C 41.33811950683594 97.65137481689453 31.36980819702148 85.56996917724609 22.68827629089355 72.71994018554688 C 13.92518329620361 59.74862289428711 6.398277282714844 45.88093566894531 0.3165896534919739 31.50206184387207 C -0.7606915831565857 28.95499992370605 -1.809941530227661 26.3484058380127 -2.802035331726074 23.7546558380127 L -3.460441589355469 22.03331184387207 L 19.3929328918457 -3.174563407897949 L 55.99724578857422 1.514217734336853 L 56.64593505859375 3.1693115234375 C 83.51387023925781 71.72159576416016 150.9539642333984 117.780158996582 224.4619903564453 117.780158996582 C 226.1239013671875 117.780158996582 227.8063659667969 117.7571258544922 229.4626770019531 117.7117156982422 L 234.6445922851562 117.5696563720703 L 217.4342346191406 149.5166931152344 L 239.3090209960938 179.2782135009766 L 233.6673431396484 179.5030975341797 C 230.4225006103516 179.6324310302734 227.1334381103516 179.697998046875 223.8914947509766 179.697998046875 Z" stroke="none" fill="#fff"/>
        </g>
        <path id="Intersection_5" data-name="Intersection 5" d="M0,.141.128,0,33.845,4.319c26.7,67.9,92.919,116.081,170.18,116.081,1.772,0,3.532-.025,5.292-.076l-15.86,29.44.011.015C102.207,145.57,25.949,83.914,0,.141Z" transform="translate(20.135 0)" opacity="0.3"/>
      </g>
      <g id="Group_2" data-name="Group 2" transform="translate(130.573 56.51) rotate(73)">
        <g id="Intersection_3-2" data-name="Intersection 3" transform="translate(0 0)" fill="#2a953c">
          <path d="M 223.8914947509766 178.197998046875 C 207.5316162109375 178.197998046875 191.1811828613281 176.549560546875 175.2943420410156 173.2984313964844 C 159.8099365234375 170.1298675537109 144.579833984375 165.4021911621094 130.0270538330078 159.2467193603516 C 115.7387466430664 153.2036895751953 101.9569625854492 145.7230377197266 89.06455993652344 137.0125885009766 C 76.29990386962891 128.3904113769531 64.29283905029297 118.4837493896484 53.3769645690918 107.56787109375 C 42.46627807617188 96.65818786621094 32.55927658081055 84.651123046875 23.93118286132812 71.88021850585938 C 15.22237110137939 58.98918533325195 7.742058277130127 45.20740509033203 1.698120951652527 30.91771697998047 C 0.6275896430015564 28.38665580749512 -0.4151290953159332 25.79634284973145 -1.401004076004028 23.21878051757812 L -1.730222821235657 22.35809326171875 L -1.111285328865051 21.67540550231934 L 19.45296478271484 -1.007501006126404 L 19.97859001159668 -1.587282180786133 L 20.75483894348145 -1.487844705581665 L 54.04340362548828 2.776186466217041 L 54.92502593994141 2.889123916625977 L 55.24937057495117 3.716655254364014 C 82.34062194824219 72.83875274658203 150.3419647216797 119.280158996582 224.4619903564453 119.280158996582 C 226.1375579833984 119.280158996582 227.8338470458984 119.2569351196289 229.5037841796875 119.2111587524414 L 232.0947418212891 119.1401214599609 L 230.8654632568359 121.4219970703125 L 215.6636962890625 149.6405639648438 L 234.7565307617188 175.6171264648438 L 236.428466796875 177.891845703125 L 233.6076202392578 178.0042877197266 C 230.3825531005859 178.1328125 227.1135864257812 178.197998046875 223.8914947509766 178.197998046875 Z" stroke="none"/>
          <path d="M 223.8914947509766 176.697998046875 C 227.1118774414062 176.697998046875 230.3317718505859 176.6336517333984 233.5478668212891 176.5054626464844 L 213.8931579589844 149.7644348144531 L 229.5449066162109 120.7105941772461 C 227.8545532226562 120.7569351196289 226.1632843017578 120.780158996582 224.4619903564453 120.780158996582 C 146.9669647216797 120.780158996582 80.55977630615234 72.40562438964844 53.85280990600586 4.264030456542969 L 20.56424522399902 -9.765625463842298e-07 L -4.089355570613407e-06 22.68290519714355 C 0.9825584292411804 25.25174903869629 2.009558439254761 27.80343627929688 3.079620838165283 30.33340454101562 C 9.085620880126953 44.53334426879883 16.51887130737305 58.22877883911133 25.17412185668945 71.04049682617188 C 33.74730682373047 83.73015594482422 43.59252548217773 95.66312408447266 54.4376220703125 106.5072174072266 C 65.28168487548828 117.3512802124023 77.21368408203125 127.1975021362305 89.90431213378906 135.7696838378906 C 102.7150268554688 144.4249420166016 116.410530090332 151.8591613769531 130.6114044189453 157.8652191162109 C 145.0735321044922 163.9823455810547 160.2081909179688 168.6802825927734 175.5950622558594 171.8289031982422 C 191.3823089599609 175.0596313476562 207.6318969726562 176.697998046875 223.8914947509766 176.697998046875 M 223.8914947509766 179.697998046875 C 207.4308471679688 179.697998046875 190.9792175292969 178.039306640625 174.9935913085938 174.7680053710938 C 159.4122161865234 171.5795593261719 144.0866851806641 166.8222503662109 129.4427185058594 160.6282196044922 C 115.0652160644531 154.5474700927734 101.1974945068359 147.0201873779297 88.22480773925781 138.2554931640625 C 75.38114929199219 129.5799407958984 63.29971313476562 119.6119384765625 52.31630706787109 108.628532409668 C 41.33811950683594 97.65137481689453 31.36980819702148 85.56996917724609 22.68827629089355 72.71994018554688 C 13.92518329620361 59.74862289428711 6.398277282714844 45.88093566894531 0.3165896534919739 31.50206184387207 C -0.7606915831565857 28.95499992370605 -1.809941530227661 26.3484058380127 -2.802035331726074 23.7546558380127 L -3.460441589355469 22.03331184387207 L 19.3929328918457 -3.174563407897949 L 55.99724578857422 1.514217734336853 L 56.64593505859375 3.1693115234375 C 83.51387023925781 71.72159576416016 150.9539642333984 117.780158996582 224.4619903564453 117.780158996582 C 226.1239013671875 117.780158996582 227.8063659667969 117.7571258544922 229.4626770019531 117.7117156982422 L 234.6445922851562 117.5696563720703 L 217.4342346191406 149.5166931152344 L 239.3090209960938 179.2782135009766 L 233.6673431396484 179.5030975341797 C 230.4225006103516 179.6324310302734 227.1334381103516 179.697998046875 223.8914947509766 179.697998046875 Z" stroke="none" fill="#fff"/>
        </g>
        <path id="Intersection_5-2" data-name="Intersection 5" d="M0,.141.128,0,33.845,4.319c26.7,67.9,92.919,116.081,170.18,116.081,1.772,0,3.532-.025,5.292-.076l-15.86,29.44.011.015C102.207,145.57,25.949,83.914,0,.141Z" transform="translate(20.135 0)" opacity="0.3"/>
      </g>
      <g id="Group_4" data-name="Group 4" transform="matrix(-0.819, 0.574, -0.574, -0.819, 404.219, 73.025)">
        <g id="Intersection_3-3" data-name="Intersection 3" transform="translate(0 0)" fill="#cf2027">
          <path d="M 223.8914947509766 178.197998046875 C 207.5316162109375 178.197998046875 191.1811828613281 176.549560546875 175.2943420410156 173.2984313964844 C 159.8099365234375 170.1298675537109 144.579833984375 165.4021911621094 130.0270538330078 159.2467193603516 C 115.7387466430664 153.2036895751953 101.9569625854492 145.7230377197266 89.06455993652344 137.0125885009766 C 76.29990386962891 128.3904113769531 64.29283905029297 118.4837493896484 53.3769645690918 107.56787109375 C 42.46627807617188 96.65818786621094 32.55927658081055 84.651123046875 23.93118286132812 71.88021850585938 C 15.22237110137939 58.98918533325195 7.742058277130127 45.20740509033203 1.698120951652527 30.91771697998047 C 0.6275896430015564 28.38665580749512 -0.4151290953159332 25.79634284973145 -1.401004076004028 23.21878051757812 L -1.730222821235657 22.35809326171875 L -1.111285328865051 21.67540550231934 L 19.45296478271484 -1.007501006126404 L 19.97859001159668 -1.587282180786133 L 20.75483894348145 -1.487844705581665 L 54.04340362548828 2.776186466217041 L 54.92502593994141 2.889123916625977 L 55.24937057495117 3.716655254364014 C 82.34062194824219 72.83875274658203 150.3419647216797 119.280158996582 224.4619903564453 119.280158996582 C 226.1375579833984 119.280158996582 227.8338470458984 119.2569351196289 229.5037841796875 119.2111587524414 L 232.0947418212891 119.1401214599609 L 230.8654632568359 121.4219970703125 L 215.6636962890625 149.6405639648438 L 234.7565307617188 175.6171264648438 L 236.428466796875 177.891845703125 L 233.6076202392578 178.0042877197266 C 230.3825531005859 178.1328125 227.1135864257812 178.197998046875 223.8914947509766 178.197998046875 Z" stroke="none"/>
          <path d="M 223.8914947509766 176.697998046875 C 227.1118774414062 176.697998046875 230.3317718505859 176.6336517333984 233.5478668212891 176.5054626464844 L 213.8931579589844 149.7644348144531 L 229.5449066162109 120.7105941772461 C 227.8545532226562 120.7569351196289 226.1632843017578 120.780158996582 224.4619903564453 120.780158996582 C 146.9669647216797 120.780158996582 80.55977630615234 72.40562438964844 53.85280990600586 4.264030456542969 L 20.56424522399902 -9.765625463842298e-07 L -4.089355570613407e-06 22.68290519714355 C 0.9825584292411804 25.25174903869629 2.009558439254761 27.80343627929688 3.079620838165283 30.33340454101562 C 9.085620880126953 44.53334426879883 16.51887130737305 58.22877883911133 25.17412185668945 71.04049682617188 C 33.74730682373047 83.73015594482422 43.59252548217773 95.66312408447266 54.4376220703125 106.5072174072266 C 65.28168487548828 117.3512802124023 77.21368408203125 127.1975021362305 89.90431213378906 135.7696838378906 C 102.7150268554688 144.4249420166016 116.410530090332 151.8591613769531 130.6114044189453 157.8652191162109 C 145.0735321044922 163.9823455810547 160.2081909179688 168.6802825927734 175.5950622558594 171.8289031982422 C 191.3823089599609 175.0596313476562 207.6318969726562 176.697998046875 223.8914947509766 176.697998046875 M 223.8914947509766 179.697998046875 C 207.4308471679688 179.697998046875 190.9792175292969 178.039306640625 174.9935913085938 174.7680053710938 C 159.4122161865234 171.5795593261719 144.0866851806641 166.8222503662109 129.4427185058594 160.6282196044922 C 115.0652160644531 154.5474700927734 101.1974945068359 147.0201873779297 88.22480773925781 138.2554931640625 C 75.38114929199219 129.5799407958984 63.29971313476562 119.6119384765625 52.31630706787109 108.628532409668 C 41.33811950683594 97.65137481689453 31.36980819702148 85.56996917724609 22.68827629089355 72.71994018554688 C 13.92518329620361 59.74862289428711 6.398277282714844 45.88093566894531 0.3165896534919739 31.50206184387207 C -0.7606915831565857 28.95499992370605 -1.809941530227661 26.3484058380127 -2.802035331726074 23.7546558380127 L -3.460441589355469 22.03331184387207 L 19.3929328918457 -3.174563407897949 L 55.99724578857422 1.514217734336853 L 56.64593505859375 3.1693115234375 C 83.51387023925781 71.72159576416016 150.9539642333984 117.780158996582 224.4619903564453 117.780158996582 C 226.1239013671875 117.780158996582 227.8063659667969 117.7571258544922 229.4626770019531 117.7117156982422 L 234.6445922851562 117.5696563720703 L 217.4342346191406 149.5166931152344 L 239.3090209960938 179.2782135009766 L 233.6673431396484 179.5030975341797 C 230.4225006103516 179.6324310302734 227.1334381103516 179.697998046875 223.8914947509766 179.697998046875 Z" stroke="none" fill="#fff"/>
        </g>
        <path id="Intersection_5-3" data-name="Intersection 5" d="M0,.141.128,0,33.845,4.319c26.7,67.9,92.919,116.081,170.18,116.081,1.772,0,3.532-.025,5.292-.076l-15.86,29.44.011.015C102.207,145.57,25.949,83.914,0,.141Z" transform="translate(20.135 0)" opacity="0.3"/>
      </g>
      <g id="Group_7" data-name="Group 7" transform="translate(473.674 337.747) rotate(-143)">
        <g id="Intersection_3-4" data-name="Intersection 3" transform="translate(0 0)" fill="#ea0b8c">
          <path d="M 223.8914947509766 178.197998046875 C 207.5316162109375 178.197998046875 191.1811828613281 176.549560546875 175.2943420410156 173.2984313964844 C 159.8099365234375 170.1298675537109 144.579833984375 165.4021911621094 130.0270538330078 159.2467193603516 C 115.7387466430664 153.2036895751953 101.9569625854492 145.7230377197266 89.06455993652344 137.0125885009766 C 76.29990386962891 128.3904113769531 64.29283905029297 118.4837493896484 53.3769645690918 107.56787109375 C 42.46627807617188 96.65818786621094 32.55927658081055 84.651123046875 23.93118286132812 71.88021850585938 C 15.22237110137939 58.98918533325195 7.742058277130127 45.20740509033203 1.698120951652527 30.91771697998047 C 0.6275896430015564 28.38665580749512 -0.4151290953159332 25.79634284973145 -1.401004076004028 23.21878051757812 L -1.730222821235657 22.35809326171875 L -1.111285328865051 21.67540550231934 L 19.45296478271484 -1.007501006126404 L 19.97859001159668 -1.587282180786133 L 20.75483894348145 -1.487844705581665 L 54.04340362548828 2.776186466217041 L 54.92502593994141 2.889123916625977 L 55.24937057495117 3.716655254364014 C 82.34062194824219 72.83875274658203 150.3419647216797 119.280158996582 224.4619903564453 119.280158996582 C 226.1375579833984 119.280158996582 227.8338470458984 119.2569351196289 229.5037841796875 119.2111587524414 L 232.0947418212891 119.1401214599609 L 230.8654632568359 121.4219970703125 L 215.6636962890625 149.6405639648438 L 234.7565307617188 175.6171264648438 L 236.428466796875 177.891845703125 L 233.6076202392578 178.0042877197266 C 230.3825531005859 178.1328125 227.1135864257812 178.197998046875 223.8914947509766 178.197998046875 Z" stroke="none"/>
          <path d="M 223.8914947509766 176.697998046875 C 227.1118774414062 176.697998046875 230.3317718505859 176.6336517333984 233.5478668212891 176.5054626464844 L 213.8931579589844 149.7644348144531 L 229.5449066162109 120.7105941772461 C 227.8545532226562 120.7569351196289 226.1632843017578 120.780158996582 224.4619903564453 120.780158996582 C 146.9669647216797 120.780158996582 80.55977630615234 72.40562438964844 53.85280990600586 4.264030456542969 L 20.56424522399902 -9.765625463842298e-07 L -4.089355570613407e-06 22.68290519714355 C 0.9825584292411804 25.25174903869629 2.009558439254761 27.80343627929688 3.079620838165283 30.33340454101562 C 9.085620880126953 44.53334426879883 16.51887130737305 58.22877883911133 25.17412185668945 71.04049682617188 C 33.74730682373047 83.73015594482422 43.59252548217773 95.66312408447266 54.4376220703125 106.5072174072266 C 65.28168487548828 117.3512802124023 77.21368408203125 127.1975021362305 89.90431213378906 135.7696838378906 C 102.7150268554688 144.4249420166016 116.410530090332 151.8591613769531 130.6114044189453 157.8652191162109 C 145.0735321044922 163.9823455810547 160.2081909179688 168.6802825927734 175.5950622558594 171.8289031982422 C 191.3823089599609 175.0596313476562 207.6318969726562 176.697998046875 223.8914947509766 176.697998046875 M 223.8914947509766 179.697998046875 C 207.4308471679688 179.697998046875 190.9792175292969 178.039306640625 174.9935913085938 174.7680053710938 C 159.4122161865234 171.5795593261719 144.0866851806641 166.8222503662109 129.4427185058594 160.6282196044922 C 115.0652160644531 154.5474700927734 101.1974945068359 147.0201873779297 88.22480773925781 138.2554931640625 C 75.38114929199219 129.5799407958984 63.29971313476562 119.6119384765625 52.31630706787109 108.628532409668 C 41.33811950683594 97.65137481689453 31.36980819702148 85.56996917724609 22.68827629089355 72.71994018554688 C 13.92518329620361 59.74862289428711 6.398277282714844 45.88093566894531 0.3165896534919739 31.50206184387207 C -0.7606915831565857 28.95499992370605 -1.809941530227661 26.3484058380127 -2.802035331726074 23.7546558380127 L -3.460441589355469 22.03331184387207 L 19.3929328918457 -3.174563407897949 L 55.99724578857422 1.514217734336853 L 56.64593505859375 3.1693115234375 C 83.51387023925781 71.72159576416016 150.9539642333984 117.780158996582 224.4619903564453 117.780158996582 C 226.1239013671875 117.780158996582 227.8063659667969 117.7571258544922 229.4626770019531 117.7117156982422 L 234.6445922851562 117.5696563720703 L 217.4342346191406 149.5166931152344 L 239.3090209960938 179.2782135009766 L 233.6673431396484 179.5030975341797 C 230.4225006103516 179.6324310302734 227.1334381103516 179.697998046875 223.8914947509766 179.697998046875 Z" stroke="none" fill="#fff"/>
        </g>
        <path id="Intersection_5-4" data-name="Intersection 5" d="M0,.141.128,0,33.845,4.319c26.7,67.9,92.919,116.081,170.18,116.081,1.772,0,3.532-.025,5.292-.076l-15.86,29.44.011.015C102.207,145.57,25.949,83.914,0,.141Z" transform="translate(20.135 0)" opacity="0.3"/>
      </g>
      <g id="Group_11" data-name="Group 11" transform="translate(243.669 484.289) rotate(-71)">
        <g id="Intersection_3-5" data-name="Intersection 3" transform="translate(0 0)" fill="#f6861f">
          <path d="M 223.8914947509766 178.197998046875 C 207.5316162109375 178.197998046875 191.1811828613281 176.549560546875 175.2943420410156 173.2984313964844 C 159.8099365234375 170.1298675537109 144.579833984375 165.4021911621094 130.0270538330078 159.2467193603516 C 115.7387466430664 153.2036895751953 101.9569625854492 145.7230377197266 89.06455993652344 137.0125885009766 C 76.29990386962891 128.3904113769531 64.29283905029297 118.4837493896484 53.3769645690918 107.56787109375 C 42.46627807617188 96.65818786621094 32.55927658081055 84.651123046875 23.93118286132812 71.88021850585938 C 15.22237110137939 58.98918533325195 7.742058277130127 45.20740509033203 1.698120951652527 30.91771697998047 C 0.6275896430015564 28.38665580749512 -0.4151290953159332 25.79634284973145 -1.401004076004028 23.21878051757812 L -1.730222821235657 22.35809326171875 L -1.111285328865051 21.67540550231934 L 19.45296478271484 -1.007501006126404 L 19.97859001159668 -1.587282180786133 L 20.75483894348145 -1.487844705581665 L 54.04340362548828 2.776186466217041 L 54.92502593994141 2.889123916625977 L 55.24937057495117 3.716655254364014 C 82.34062194824219 72.83875274658203 150.3419647216797 119.280158996582 224.4619903564453 119.280158996582 C 226.1375579833984 119.280158996582 227.8338470458984 119.2569351196289 229.5037841796875 119.2111587524414 L 232.0947418212891 119.1401214599609 L 230.8654632568359 121.4219970703125 L 215.6636962890625 149.6405639648438 L 234.7565307617188 175.6171264648438 L 236.428466796875 177.891845703125 L 233.6076202392578 178.0042877197266 C 230.3825531005859 178.1328125 227.1135864257812 178.197998046875 223.8914947509766 178.197998046875 Z" stroke="none"/>
          <path d="M 223.8914947509766 176.697998046875 C 227.1118774414062 176.697998046875 230.3317718505859 176.6336517333984 233.5478668212891 176.5054626464844 L 213.8931579589844 149.7644348144531 L 229.5449066162109 120.7105941772461 C 227.8545532226562 120.7569351196289 226.1632843017578 120.780158996582 224.4619903564453 120.780158996582 C 146.9669647216797 120.780158996582 80.55977630615234 72.40562438964844 53.85280990600586 4.264030456542969 L 20.56424522399902 -9.765625463842298e-07 L -4.089355570613407e-06 22.68290519714355 C 0.9825584292411804 25.25174903869629 2.009558439254761 27.80343627929688 3.079620838165283 30.33340454101562 C 9.085620880126953 44.53334426879883 16.51887130737305 58.22877883911133 25.17412185668945 71.04049682617188 C 33.74730682373047 83.73015594482422 43.59252548217773 95.66312408447266 54.4376220703125 106.5072174072266 C 65.28168487548828 117.3512802124023 77.21368408203125 127.1975021362305 89.90431213378906 135.7696838378906 C 102.7150268554688 144.4249420166016 116.410530090332 151.8591613769531 130.6114044189453 157.8652191162109 C 145.0735321044922 163.9823455810547 160.2081909179688 168.6802825927734 175.5950622558594 171.8289031982422 C 191.3823089599609 175.0596313476562 207.6318969726562 176.697998046875 223.8914947509766 176.697998046875 M 223.8914947509766 179.697998046875 C 207.4308471679688 179.697998046875 190.9792175292969 178.039306640625 174.9935913085938 174.7680053710938 C 159.4122161865234 171.5795593261719 144.0866851806641 166.8222503662109 129.4427185058594 160.6282196044922 C 115.0652160644531 154.5474700927734 101.1974945068359 147.0201873779297 88.22480773925781 138.2554931640625 C 75.38114929199219 129.5799407958984 63.29971313476562 119.6119384765625 52.31630706787109 108.628532409668 C 41.33811950683594 97.65137481689453 31.36980819702148 85.56996917724609 22.68827629089355 72.71994018554688 C 13.92518329620361 59.74862289428711 6.398277282714844 45.88093566894531 0.3165896534919739 31.50206184387207 C -0.7606915831565857 28.95499992370605 -1.809941530227661 26.3484058380127 -2.802035331726074 23.7546558380127 L -3.460441589355469 22.03331184387207 L 19.3929328918457 -3.174563407897949 L 55.99724578857422 1.514217734336853 L 56.64593505859375 3.1693115234375 C 83.51387023925781 71.72159576416016 150.9539642333984 117.780158996582 224.4619903564453 117.780158996582 C 226.1239013671875 117.780158996582 227.8063659667969 117.7571258544922 229.4626770019531 117.7117156982422 L 234.6445922851562 117.5696563720703 L 217.4342346191406 149.5166931152344 L 239.3090209960938 179.2782135009766 L 233.6673431396484 179.5030975341797 C 230.4225006103516 179.6324310302734 227.1334381103516 179.697998046875 223.8914947509766 179.697998046875 Z" stroke="none" fill="#fff"/>
        </g>
        <path id="Intersection_5-5" data-name="Intersection 5" d="M0,.141.128,0,33.845,4.319c26.7,67.9,92.919,116.081,170.18,116.081,1.772,0,3.532-.025,5.292-.076l-15.86,29.44.011.015C102.207,145.57,25.949,83.914,0,.141Z" transform="translate(20.135 0)" opacity="0.3"/>
      </g>
    </g>
  </g>
</svg>
