<svg xmlns="http://www.w3.org/2000/svg" xmlns:xlink="http://www.w3.org/1999/xlink" width="512" height="512" viewBox="0 0 512 512">
  <defs>
    <clipPath id="clip-klpt-logo-icon">
      <rect width="512" height="512"/>
    </clipPath>
  </defs>
  <g id="klpt-logo-icon" clip-path="url(#clip-klpt-logo-icon)">
    <g id="Group_12" data-name="Group 12" transform="translate(-618 98.611)">
      <g id="Group_1" data-name="Group 1" transform="matrix(1, 0.017, -0.017, 1, 100.411, 681.806)">
        <g id="Intersection_3" data-name="Intersection 3" transform="translate(0 0.001)" fill="#0077c1">
          <path d="M 440.0664978027344 348.8060302734375 C 408.0076904296875 348.8060302734375 375.968017578125 345.5758361816406 344.8374328613281 339.2052001953125 C 314.4959106445312 332.9963684082031 284.6527404785156 323.7325439453125 256.1368408203125 311.6710815429688 C 228.138916015625 299.8297119140625 201.1333312988281 285.1712951660156 175.8702697753906 268.10302734375 C 150.8573913574219 251.2074279785156 127.328857421875 231.7947235107422 105.9383850097656 210.4042510986328 C 84.55832672119141 189.0261840820312 65.14497375488281 165.4976654052734 48.23762130737305 140.4722442626953 C 31.17267990112305 115.2122497558594 16.51497268676758 88.2066650390625 4.671561717987061 60.20566177368164 C 2.573385000228882 55.24478149414062 0.5302674174308777 50.16925048828125 -1.400967836380005 45.11995697021484 L -1.730144381523132 44.25925064086914 L -1.111261963844299 43.57660293579102 L 39.30844497680664 -1.007455468177795 L 39.83409118652344 -1.587278962135315 L 40.61032485961914 -1.487808346748352 L 106.040153503418 6.893309116363525 L 106.9217987060547 7.006250381469727 L 107.2461471557617 7.833779811859131 C 160.7105560302734 144.2457275390625 294.9114379882812 235.8975372314453 441.1878051757812 235.8975372314453 C 444.4937438964844 235.8975372314453 447.8412780761719 235.8517150878906 451.1372680664062 235.7614288330078 L 453.7282104492188 235.6903686523438 L 452.4989624023438 237.9722442626953 L 422.1849365234375 294.2432861328125 L 460.2550964355469 346.0392456054688 L 461.9270324707031 348.3140258789062 L 459.106201171875 348.4264221191406 C 452.7861938476562 348.6783142089844 446.38037109375 348.8060302734375 440.0664978027344 348.8060302734375 Z" stroke="none"/>
          <path d="M 440.0664978027344 347.3060302734375 C 446.3962097167969 347.3060302734375 452.72509765625 347.1795349121094 459.0464477539062 346.9276123046875 L 420.4143981933594 294.3671264648438 L 451.1783752441406 237.2608337402344 C 447.8560180664062 237.3518981933594 444.53173828125 237.3975372314453 441.1878051757812 237.3975372314453 C 288.8686828613281 237.3975372314453 158.3430328369141 142.3157196044922 105.8495635986328 8.381133079528809 L 40.41973876953125 1.513671850261744e-05 L 3.214757452951744e-05 44.58407211303711 C 1.931208610534668 49.6331901550293 3.94985556602478 54.64860153198242 6.053091049194336 59.62130737304688 C 17.85815048217773 87.53177642822266 32.4683837890625 114.4506607055664 49.48056030273438 139.6325378417969 C 66.33150482177734 164.5744781494141 85.6826171875 188.0291900634766 106.9990310668945 209.3435974121094 C 128.3134460449219 230.6580200195312 151.7661437988281 250.0111389160156 176.7100372314453 266.8600769042969 C 201.8899688720703 283.8722534179688 228.8088531494141 298.4844360351562 256.7212219238281 310.28955078125 C 285.1470336914062 322.3129577636719 314.8947448730469 331.5469055175781 345.1381530761719 337.7356567382812 C 376.1684875488281 344.0857849121094 408.107666015625 347.3060302734375 440.0664978027344 347.3060302734375 M 440.0664978027344 350.3060302734375 C 407.9069213867188 350.3060302734375 375.7660217285156 347.0656127929688 344.5366821289062 340.6747741699219 C 314.09814453125 334.4460754394531 284.1595764160156 325.1526184082031 255.5525054931641 313.0525512695312 C 227.4653778076172 301.1735534667969 200.3738555908203 286.4684753417969 175.0305633544922 269.3458862304688 C 149.9386138916016 252.3969573974609 126.3357391357422 232.9229583740234 104.8777389526367 211.4649047851562 C 83.43020629882812 190.0194244384766 63.95550155639648 166.4165496826172 46.9947395324707 141.31201171875 C 29.87550354003906 115.9717178344727 15.17115020751953 88.88018798828125 3.290091037750244 60.78995513916016 C 1.185091018676758 55.81313323974609 -0.8645560741424561 50.72124862670898 -2.802026748657227 45.65578079223633 L -3.460379600524902 43.93448638916016 L 39.24844360351562 -3.174514293670654 L 107.9940338134766 5.631309032440186 L 108.6426773071289 7.286427021026611 C 161.8838043212891 143.1286010742188 295.5234375 234.3975372314453 441.1878051757812 234.3975372314453 C 444.4801025390625 234.3975372314453 447.8137817382812 234.3519592285156 451.0962219238281 234.261962890625 L 456.2780456542969 234.1199493408203 L 423.9554748535156 294.119384765625 L 464.8076171875 349.7003784179688 L 459.1659240722656 349.9252624511719 C 452.8261413574219 350.1778869628906 446.4002075195312 350.3060302734375 440.0664978027344 350.3060302734375 Z" stroke="none" fill="#fff"/>
        </g>
        <path id="Intersection_5" data-name="Intersection 5" d="M0,.277.252,0,66.523,8.489C119.006,141.944,249.159,236.65,401.018,236.65c3.482,0,6.943-.049,10.4-.148l-31.173,57.866.022.03C200.892,286.122,51,164.937,0,.277Z" transform="translate(39.577 0)" opacity="0.3"/>
      </g>
      <g id="Group_2" data-name="Group 2" transform="translate(293.726 180.319) rotate(73)">
        <g id="Intersection_3-2" data-name="Intersection 3" transform="translate(0 0.001)" fill="#2a953c">
          <path d="M 440.0664978027344 348.8060302734375 C 408.0076904296875 348.8060302734375 375.968017578125 345.5758361816406 344.8374328613281 339.2052001953125 C 314.4959106445312 332.9963684082031 284.6527404785156 323.7325439453125 256.1368408203125 311.6710815429688 C 228.138916015625 299.8297119140625 201.1333312988281 285.1712951660156 175.8702697753906 268.10302734375 C 150.8573913574219 251.2074279785156 127.328857421875 231.7947235107422 105.9383850097656 210.4042510986328 C 84.55832672119141 189.0261840820312 65.14497375488281 165.4976654052734 48.23762130737305 140.4722442626953 C 31.17267990112305 115.2122497558594 16.51497268676758 88.2066650390625 4.671561717987061 60.20566177368164 C 2.573385000228882 55.24478149414062 0.5302674174308777 50.16925048828125 -1.400967836380005 45.11995697021484 L -1.730144381523132 44.25925064086914 L -1.111261963844299 43.57660293579102 L 39.30844497680664 -1.007455468177795 L 39.83409118652344 -1.587278962135315 L 40.61032485961914 -1.487808346748352 L 106.040153503418 6.893309116363525 L 106.9217987060547 7.006250381469727 L 107.2461471557617 7.833779811859131 C 160.7105560302734 144.2457275390625 294.9114379882812 235.8975372314453 441.1878051757812 235.8975372314453 C 444.4937438964844 235.8975372314453 447.8412780761719 235.8517150878906 451.1372680664062 235.7614288330078 L 453.7282104492188 235.6903686523438 L 452.4989624023438 237.9722442626953 L 422.1849365234375 294.2432861328125 L 460.2550964355469 346.0392456054688 L 461.9270324707031 348.3140258789062 L 459.106201171875 348.4264221191406 C 452.7861938476562 348.6783142089844 446.38037109375 348.8060302734375 440.0664978027344 348.8060302734375 Z" stroke="none"/>
          <path d="M 440.0664978027344 347.3060302734375 C 446.3962097167969 347.3060302734375 452.72509765625 347.1795349121094 459.0464477539062 346.9276123046875 L 420.4143981933594 294.3671264648438 L 451.1783752441406 237.2608337402344 C 447.8560180664062 237.3518981933594 444.53173828125 237.3975372314453 441.1878051757812 237.3975372314453 C 288.8686828613281 237.3975372314453 158.3430328369141 142.3157196044922 105.8495635986328 8.381133079528809 L 40.41973876953125 1.513671850261744e-05 L 3.214757452951744e-05 44.58407211303711 C 1.931208610534668 49.6331901550293 3.94985556602478 54.64860153198242 6.053091049194336 59.62130737304688 C 17.85815048217773 87.53177642822266 32.4683837890625 114.4506607055664 49.48056030273438 139.6325378417969 C 66.33150482177734 164.5744781494141 85.6826171875 188.0291900634766 106.9990310668945 209.3435974121094 C 128.3134460449219 230.6580200195312 151.7661437988281 250.0111389160156 176.7100372314453 266.8600769042969 C 201.8899688720703 283.8722534179688 228.8088531494141 298.4844360351562 256.7212219238281 310.28955078125 C 285.1470336914062 322.3129577636719 314.8947448730469 331.5469055175781 345.1381530761719 337.7356567382812 C 376.1684875488281 344.0857849121094 408.107666015625 347.3060302734375 440.0664978027344 347.3060302734375 M 440.0664978027344 350.3060302734375 C 407.9069213867188 350.3060302734375 375.7660217285156 347.0656127929688 344.5366821289062 340.6747741699219 C 314.09814453125 334.4460754394531 284.1595764160156 325.1526184082031 255.5525054931641 313.0525512695312 C 227.4653778076172 301.1735534667969 200.3738555908203 286.4684753417969 175.0305633544922 269.3458862304688 C 149.9386138916016 252.3969573974609 126.3357391357422 232.9229583740234 104.8777389526367 211.4649047851562 C 83.43020629882812 190.0194244384766 63.95550155639648 166.4165496826172 46.9947395324707 141.31201171875 C 29.87550354003906 115.9717178344727 15.17115020751953 88.88018798828125 3.290091037750244 60.78995513916016 C 1.185091018676758 55.81313323974609 -0.8645560741424561 50.72124862670898 -2.802026748657227 45.65578079223633 L -3.460379600524902 43.93448638916016 L 39.24844360351562 -3.174514293670654 L 107.9940338134766 5.631309032440186 L 108.6426773071289 7.286427021026611 C 161.8838043212891 143.1286010742188 295.5234375 234.3975372314453 441.1878051757812 234.3975372314453 C 444.4801025390625 234.3975372314453 447.8137817382812 234.3519592285156 451.0962219238281 234.261962890625 L 456.2780456542969 234.1199493408203 L 423.9554748535156 294.119384765625 L 464.8076171875 349.7003784179688 L 459.1659240722656 349.9252624511719 C 452.8261413574219 350.1778869628906 446.4002075195312 350.3060302734375 440.0664978027344 350.3060302734375 Z" stroke="none" fill="#fff"/>
        </g>
        <path id="Intersection_5-2" data-name="Intersection 5" d="M0,.277.252,0,66.523,8.489C119.006,141.944,249.159,236.65,401.018,236.65c3.482,0,6.943-.049,10.4-.148l-31.173,57.866.022.03C200.892,286.122,51,164.937,0,.277Z" transform="translate(39.577 0)" opacity="0.3"/>
      </g>
      <g id="Group_4" data-name="Group 4" transform="matrix(-0.819, 0.574, -0.574, -0.819, 831.588, 212.779)">
        <g id="Intersection_3-3" data-name="Intersection 3" transform="translate(0 0.001)" fill="#cf2027">
          <path d="M 440.0664978027344 348.8060302734375 C 408.0076904296875 348.8060302734375 375.968017578125 345.5758361816406 344.8374328613281 339.2052001953125 C 314.4959106445312 332.9963684082031 284.6527404785156 323.7325439453125 256.1368408203125 311.6710815429688 C 228.138916015625 299.8297119140625 201.1333312988281 285.1712951660156 175.8702697753906 268.10302734375 C 150.8573913574219 251.2074279785156 127.328857421875 231.7947235107422 105.9383850097656 210.4042510986328 C 84.55832672119141 189.0261840820312 65.14497375488281 165.4976654052734 48.23762130737305 140.4722442626953 C 31.17267990112305 115.2122497558594 16.51497268676758 88.2066650390625 4.671561717987061 60.20566177368164 C 2.573385000228882 55.24478149414062 0.5302674174308777 50.16925048828125 -1.400967836380005 45.11995697021484 L -1.730144381523132 44.25925064086914 L -1.111261963844299 43.57660293579102 L 39.30844497680664 -1.007455468177795 L 39.83409118652344 -1.587278962135315 L 40.61032485961914 -1.487808346748352 L 106.040153503418 6.893309116363525 L 106.9217987060547 7.006250381469727 L 107.2461471557617 7.833779811859131 C 160.7105560302734 144.2457275390625 294.9114379882812 235.8975372314453 441.1878051757812 235.8975372314453 C 444.4937438964844 235.8975372314453 447.8412780761719 235.8517150878906 451.1372680664062 235.7614288330078 L 453.7282104492188 235.6903686523438 L 452.4989624023438 237.9722442626953 L 422.1849365234375 294.2432861328125 L 460.2550964355469 346.0392456054688 L 461.9270324707031 348.3140258789062 L 459.106201171875 348.4264221191406 C 452.7861938476562 348.6783142089844 446.38037109375 348.8060302734375 440.0664978027344 348.8060302734375 Z" stroke="none"/>
          <path d="M 440.0664978027344 347.3060302734375 C 446.3962097167969 347.3060302734375 452.72509765625 347.1795349121094 459.0464477539062 346.9276123046875 L 420.4143981933594 294.3671264648438 L 451.1783752441406 237.2608337402344 C 447.8560180664062 237.3518981933594 444.53173828125 237.3975372314453 441.1878051757812 237.3975372314453 C 288.8686828613281 237.3975372314453 158.3430328369141 142.3157196044922 105.8495635986328 8.381133079528809 L 40.41973876953125 1.513671850261744e-05 L 3.214757452951744e-05 44.58407211303711 C 1.931208610534668 49.6331901550293 3.94985556602478 54.64860153198242 6.053091049194336 59.62130737304688 C 17.85815048217773 87.53177642822266 32.4683837890625 114.4506607055664 49.48056030273438 139.6325378417969 C 66.33150482177734 164.5744781494141 85.6826171875 188.0291900634766 106.9990310668945 209.3435974121094 C 128.3134460449219 230.6580200195312 151.7661437988281 250.0111389160156 176.7100372314453 266.8600769042969 C 201.8899688720703 283.8722534179688 228.8088531494141 298.4844360351562 256.7212219238281 310.28955078125 C 285.1470336914062 322.3129577636719 314.8947448730469 331.5469055175781 345.1381530761719 337.7356567382812 C 376.1684875488281 344.0857849121094 408.107666015625 347.3060302734375 440.0664978027344 347.3060302734375 M 440.0664978027344 350.3060302734375 C 407.9069213867188 350.3060302734375 375.7660217285156 347.0656127929688 344.5366821289062 340.6747741699219 C 314.09814453125 334.4460754394531 284.1595764160156 325.1526184082031 255.5525054931641 313.0525512695312 C 227.4653778076172 301.1735534667969 200.3738555908203 286.4684753417969 175.0305633544922 269.3458862304688 C 149.9386138916016 252.3969573974609 126.3357391357422 232.9229583740234 104.8777389526367 211.4649047851562 C 83.43020629882812 190.0194244384766 63.95550155639648 166.4165496826172 46.9947395324707 141.31201171875 C 29.87550354003906 115.9717178344727 15.17115020751953 88.88018798828125 3.290091037750244 60.78995513916016 C 1.185091018676758 55.81313323974609 -0.8645560741424561 50.72124862670898 -2.802026748657227 45.65578079223633 L -3.460379600524902 43.93448638916016 L 39.24844360351562 -3.174514293670654 L 107.9940338134766 5.631309032440186 L 108.6426773071289 7.286427021026611 C 161.8838043212891 143.1286010742188 295.5234375 234.3975372314453 441.1878051757812 234.3975372314453 C 444.4801025390625 234.3975372314453 447.8137817382812 234.3519592285156 451.0962219238281 234.261962890625 L 456.2780456542969 234.1199493408203 L 423.9554748535156 294.119384765625 L 464.8076171875 349.7003784179688 L 459.1659240722656 349.9252624511719 C 452.8261413574219 350.1778869628906 446.4002075195312 350.3060302734375 440.0664978027344 350.3060302734375 Z" stroke="none" fill="#fff"/>
        </g>
        <path id="Intersection_5-3" data-name="Intersection 5" d="M0,.277.252,0,66.523,8.489C119.006,141.944,249.159,236.65,401.018,236.65c3.482,0,6.943-.049,10.4-.148l-31.173,57.866.022.03C200.892,286.122,51,164.937,0,.277Z" transform="translate(39.577 0)" opacity="0.3"/>
      </g>
      <g id="Group_7" data-name="Group 7" transform="translate(968.104 733.099) rotate(-143)">
        <g id="Intersection_3-4" data-name="Intersection 3" transform="translate(0 0.001)" fill="#ea0b8c">
          <path d="M 440.0664978027344 348.8060302734375 C 408.0076904296875 348.8060302734375 375.968017578125 345.5758361816406 344.8374328613281 339.2052001953125 C 314.4959106445312 332.9963684082031 284.6527404785156 323.7325439453125 256.1368408203125 311.6710815429688 C 228.138916015625 299.8297119140625 201.1333312988281 285.1712951660156 175.8702697753906 268.10302734375 C 150.8573913574219 251.2074279785156 127.328857421875 231.7947235107422 105.9383850097656 210.4042510986328 C 84.55832672119141 189.0261840820312 65.14497375488281 165.4976654052734 48.23762130737305 140.4722442626953 C 31.17267990112305 115.2122497558594 16.51497268676758 88.2066650390625 4.671561717987061 60.20566177368164 C 2.573385000228882 55.24478149414062 0.5302674174308777 50.16925048828125 -1.400967836380005 45.11995697021484 L -1.730144381523132 44.25925064086914 L -1.111261963844299 43.57660293579102 L 39.30844497680664 -1.007455468177795 L 39.83409118652344 -1.587278962135315 L 40.61032485961914 -1.487808346748352 L 106.040153503418 6.893309116363525 L 106.9217987060547 7.006250381469727 L 107.2461471557617 7.833779811859131 C 160.7105560302734 144.2457275390625 294.9114379882812 235.8975372314453 441.1878051757812 235.8975372314453 C 444.4937438964844 235.8975372314453 447.8412780761719 235.8517150878906 451.1372680664062 235.7614288330078 L 453.7282104492188 235.6903686523438 L 452.4989624023438 237.9722442626953 L 422.1849365234375 294.2432861328125 L 460.2550964355469 346.0392456054688 L 461.9270324707031 348.3140258789062 L 459.106201171875 348.4264221191406 C 452.7861938476562 348.6783142089844 446.38037109375 348.8060302734375 440.0664978027344 348.8060302734375 Z" stroke="none"/>
          <path d="M 440.0664978027344 347.3060302734375 C 446.3962097167969 347.3060302734375 452.72509765625 347.1795349121094 459.0464477539062 346.9276123046875 L 420.4143981933594 294.3671264648438 L 451.1783752441406 237.2608337402344 C 447.8560180664062 237.3518981933594 444.53173828125 237.3975372314453 441.1878051757812 237.3975372314453 C 288.8686828613281 237.3975372314453 158.3430328369141 142.3157196044922 105.8495635986328 8.381133079528809 L 40.41973876953125 1.513671850261744e-05 L 3.214757452951744e-05 44.58407211303711 C 1.931208610534668 49.6331901550293 3.94985556602478 54.64860153198242 6.053091049194336 59.62130737304688 C 17.85815048217773 87.53177642822266 32.4683837890625 114.4506607055664 49.48056030273438 139.6325378417969 C 66.33150482177734 164.5744781494141 85.6826171875 188.0291900634766 106.9990310668945 209.3435974121094 C 128.3134460449219 230.6580200195312 151.7661437988281 250.0111389160156 176.7100372314453 266.8600769042969 C 201.8899688720703 283.8722534179688 228.8088531494141 298.4844360351562 256.7212219238281 310.28955078125 C 285.1470336914062 322.3129577636719 314.8947448730469 331.5469055175781 345.1381530761719 337.7356567382812 C 376.1684875488281 344.0857849121094 408.107666015625 347.3060302734375 440.0664978027344 347.3060302734375 M 440.0664978027344 350.3060302734375 C 407.9069213867188 350.3060302734375 375.7660217285156 347.0656127929688 344.5366821289062 340.6747741699219 C 314.09814453125 334.4460754394531 284.1595764160156 325.1526184082031 255.5525054931641 313.0525512695312 C 227.4653778076172 301.1735534667969 200.3738555908203 286.4684753417969 175.0305633544922 269.3458862304688 C 149.9386138916016 252.3969573974609 126.3357391357422 232.9229583740234 104.8777389526367 211.4649047851562 C 83.43020629882812 190.0194244384766 63.95550155639648 166.4165496826172 46.9947395324707 141.31201171875 C 29.87550354003906 115.9717178344727 15.17115020751953 88.88018798828125 3.290091037750244 60.78995513916016 C 1.185091018676758 55.81313323974609 -0.8645560741424561 50.72124862670898 -2.802026748657227 45.65578079223633 L -3.460379600524902 43.93448638916016 L 39.24844360351562 -3.174514293670654 L 107.9940338134766 5.631309032440186 L 108.6426773071289 7.286427021026611 C 161.8838043212891 143.1286010742188 295.5234375 234.3975372314453 441.1878051757812 234.3975372314453 C 444.4801025390625 234.3975372314453 447.8137817382812 234.3519592285156 451.0962219238281 234.261962890625 L 456.2780456542969 234.1199493408203 L 423.9554748535156 294.119384765625 L 464.8076171875 349.7003784179688 L 459.1659240722656 349.9252624511719 C 452.8261413574219 350.1778869628906 446.4002075195312 350.3060302734375 440.0664978027344 350.3060302734375 Z" stroke="none" fill="#fff"/>
        </g>
        <path id="Intersection_5-4" data-name="Intersection 5" d="M0,.277.252,0,66.523,8.489C119.006,141.944,249.159,236.65,401.018,236.65c3.482,0,6.943-.049,10.4-.148l-31.173,57.866.022.03C200.892,286.122,51,164.937,0,.277Z" transform="translate(39.577 0)" opacity="0.3"/>
      </g>
      <g id="Group_11" data-name="Group 11" transform="translate(516.02 1021.133) rotate(-71)">
        <g id="Intersection_3-5" data-name="Intersection 3" transform="translate(0 0.001)" fill="#f6861f">
          <path d="M 440.0664978027344 348.8060302734375 C 408.0076904296875 348.8060302734375 375.968017578125 345.5758361816406 344.8374328613281 339.2052001953125 C 314.4959106445312 332.9963684082031 284.6527404785156 323.7325439453125 256.1368408203125 311.6710815429688 C 228.138916015625 299.8297119140625 201.1333312988281 285.1712951660156 175.8702697753906 268.10302734375 C 150.8573913574219 251.2074279785156 127.328857421875 231.7947235107422 105.9383850097656 210.4042510986328 C 84.55832672119141 189.0261840820312 65.14497375488281 165.4976654052734 48.23762130737305 140.4722442626953 C 31.17267990112305 115.2122497558594 16.51497268676758 88.2066650390625 4.671561717987061 60.20566177368164 C 2.573385000228882 55.24478149414062 0.5302674174308777 50.16925048828125 -1.400967836380005 45.11995697021484 L -1.730144381523132 44.25925064086914 L -1.111261963844299 43.57660293579102 L 39.30844497680664 -1.007455468177795 L 39.83409118652344 -1.587278962135315 L 40.61032485961914 -1.487808346748352 L 106.040153503418 6.893309116363525 L 106.9217987060547 7.006250381469727 L 107.2461471557617 7.833779811859131 C 160.7105560302734 144.2457275390625 294.9114379882812 235.8975372314453 441.1878051757812 235.8975372314453 C 444.4937438964844 235.8975372314453 447.8412780761719 235.8517150878906 451.1372680664062 235.7614288330078 L 453.7282104492188 235.6903686523438 L 452.4989624023438 237.9722442626953 L 422.1849365234375 294.2432861328125 L 460.2550964355469 346.0392456054688 L 461.9270324707031 348.3140258789062 L 459.106201171875 348.4264221191406 C 452.7861938476562 348.6783142089844 446.38037109375 348.8060302734375 440.0664978027344 348.8060302734375 Z" stroke="none"/>
          <path d="M 440.0664978027344 347.3060302734375 C 446.3962097167969 347.3060302734375 452.72509765625 347.1795349121094 459.0464477539062 346.9276123046875 L 420.4143981933594 294.3671264648438 L 451.1783752441406 237.2608337402344 C 447.8560180664062 237.3518981933594 444.53173828125 237.3975372314453 441.1878051757812 237.3975372314453 C 288.8686828613281 237.3975372314453 158.3430328369141 142.3157196044922 105.8495635986328 8.381133079528809 L 40.41973876953125 1.513671850261744e-05 L 3.214757452951744e-05 44.58407211303711 C 1.931208610534668 49.6331901550293 3.94985556602478 54.64860153198242 6.053091049194336 59.62130737304688 C 17.85815048217773 87.53177642822266 32.4683837890625 114.4506607055664 49.48056030273438 139.6325378417969 C 66.33150482177734 164.5744781494141 85.6826171875 188.0291900634766 106.9990310668945 209.3435974121094 C 128.3134460449219 230.6580200195312 151.7661437988281 250.0111389160156 176.7100372314453 266.8600769042969 C 201.8899688720703 283.8722534179688 228.8088531494141 298.4844360351562 256.7212219238281 310.28955078125 C 285.1470336914062 322.3129577636719 314.8947448730469 331.5469055175781 345.1381530761719 337.7356567382812 C 376.1684875488281 344.0857849121094 408.107666015625 347.3060302734375 440.0664978027344 347.3060302734375 M 440.0664978027344 350.3060302734375 C 407.9069213867188 350.3060302734375 375.7660217285156 347.0656127929688 344.5366821289062 340.6747741699219 C 314.09814453125 334.4460754394531 284.1595764160156 325.1526184082031 255.5525054931641 313.0525512695312 C 227.4653778076172 301.1735534667969 200.3738555908203 286.4684753417969 175.0305633544922 269.3458862304688 C 149.9386138916016 252.3969573974609 126.3357391357422 232.9229583740234 104.8777389526367 211.4649047851562 C 83.43020629882812 190.0194244384766 63.95550155639648 166.4165496826172 46.9947395324707 141.31201171875 C 29.87550354003906 115.9717178344727 15.17115020751953 88.88018798828125 3.290091037750244 60.78995513916016 C 1.185091018676758 55.81313323974609 -0.8645560741424561 50.72124862670898 -2.802026748657227 45.65578079223633 L -3.460379600524902 43.93448638916016 L 39.24844360351562 -3.174514293670654 L 107.9940338134766 5.631309032440186 L 108.6426773071289 7.286427021026611 C 161.8838043212891 143.1286010742188 295.5234375 234.3975372314453 441.1878051757812 234.3975372314453 C 444.4801025390625 234.3975372314453 447.8137817382812 234.3519592285156 451.0962219238281 234.261962890625 L 456.2780456542969 234.1199493408203 L 423.9554748535156 294.119384765625 L 464.8076171875 349.7003784179688 L 459.1659240722656 349.9252624511719 C 452.8261413574219 350.1778869628906 446.4002075195312 350.3060302734375 440.0664978027344 350.3060302734375 Z" stroke="none" fill="#fff"/>
        </g>
        <path id="Intersection_5-5" data-name="Intersection 5" d="M0,.277.252,0,66.523,8.489C119.006,141.944,249.159,236.65,401.018,236.65c3.482,0,6.943-.049,10.4-.148l-31.173,57.866.022.03C200.892,286.122,51,164.937,0,.277Z" transform="translate(39.577 0)" opacity="0.3"/>
      </g>
    </g>
    <g id="Group_13" data-name="Group 13" transform="translate(-382.595 -820.389)">
      <g id="Group_1-2" data-name="Group 1" transform="matrix(1, 0.017, -0.017, 1, 100.411, 681.806)">
        <g id="Intersection_3-6" data-name="Intersection 3" transform="translate(0 0.001)" fill="#0077c1">
          <path d="M 440.0664978027344 348.8060302734375 C 408.0076904296875 348.8060302734375 375.968017578125 345.5758361816406 344.8374328613281 339.2052001953125 C 314.4959106445312 332.9963684082031 284.6527404785156 323.7325439453125 256.1368408203125 311.6710815429688 C 228.138916015625 299.8297119140625 201.1333312988281 285.1712951660156 175.8702697753906 268.10302734375 C 150.8573913574219 251.2074279785156 127.328857421875 231.7947235107422 105.9383850097656 210.4042510986328 C 84.55832672119141 189.0261840820312 65.14497375488281 165.4976654052734 48.23762130737305 140.4722442626953 C 31.17267990112305 115.2122497558594 16.51497268676758 88.2066650390625 4.671561717987061 60.20566177368164 C 2.573385000228882 55.24478149414062 0.5302674174308777 50.16925048828125 -1.400967836380005 45.11995697021484 L -1.730144381523132 44.25925064086914 L -1.111261963844299 43.57660293579102 L 39.30844497680664 -1.007455468177795 L 39.83409118652344 -1.587278962135315 L 40.61032485961914 -1.487808346748352 L 106.040153503418 6.893309116363525 L 106.9217987060547 7.006250381469727 L 107.2461471557617 7.833779811859131 C 160.7105560302734 144.2457275390625 294.9114379882812 235.8975372314453 441.1878051757812 235.8975372314453 C 444.4937438964844 235.8975372314453 447.8412780761719 235.8517150878906 451.1372680664062 235.7614288330078 L 453.7282104492188 235.6903686523438 L 452.4989624023438 237.9722442626953 L 422.1849365234375 294.2432861328125 L 460.2550964355469 346.0392456054688 L 461.9270324707031 348.3140258789062 L 459.106201171875 348.4264221191406 C 452.7861938476562 348.6783142089844 446.38037109375 348.8060302734375 440.0664978027344 348.8060302734375 Z" stroke="none"/>
          <path d="M 440.0664978027344 347.3060302734375 C 446.3962097167969 347.3060302734375 452.72509765625 347.1795349121094 459.0464477539062 346.9276123046875 L 420.4143981933594 294.3671264648438 L 451.1783752441406 237.2608337402344 C 447.8560180664062 237.3518981933594 444.53173828125 237.3975372314453 441.1878051757812 237.3975372314453 C 288.8686828613281 237.3975372314453 158.3430328369141 142.3157196044922 105.8495635986328 8.381133079528809 L 40.41973876953125 1.513671850261744e-05 L 3.214757452951744e-05 44.58407211303711 C 1.931208610534668 49.6331901550293 3.94985556602478 54.64860153198242 6.053091049194336 59.62130737304688 C 17.85815048217773 87.53177642822266 32.4683837890625 114.4506607055664 49.48056030273438 139.6325378417969 C 66.33150482177734 164.5744781494141 85.6826171875 188.0291900634766 106.9990310668945 209.3435974121094 C 128.3134460449219 230.6580200195312 151.7661437988281 250.0111389160156 176.7100372314453 266.8600769042969 C 201.8899688720703 283.8722534179688 228.8088531494141 298.4844360351562 256.7212219238281 310.28955078125 C 285.1470336914062 322.3129577636719 314.8947448730469 331.5469055175781 345.1381530761719 337.7356567382812 C 376.1684875488281 344.0857849121094 408.107666015625 347.3060302734375 440.0664978027344 347.3060302734375 M 440.0664978027344 350.3060302734375 C 407.9069213867188 350.3060302734375 375.7660217285156 347.0656127929688 344.5366821289062 340.6747741699219 C 314.09814453125 334.4460754394531 284.1595764160156 325.1526184082031 255.5525054931641 313.0525512695312 C 227.4653778076172 301.1735534667969 200.3738555908203 286.4684753417969 175.0305633544922 269.3458862304688 C 149.9386138916016 252.3969573974609 126.3357391357422 232.9229583740234 104.8777389526367 211.4649047851562 C 83.43020629882812 190.0194244384766 63.95550155639648 166.4165496826172 46.9947395324707 141.31201171875 C 29.87550354003906 115.9717178344727 15.17115020751953 88.88018798828125 3.290091037750244 60.78995513916016 C 1.185091018676758 55.81313323974609 -0.8645560741424561 50.72124862670898 -2.802026748657227 45.65578079223633 L -3.460379600524902 43.93448638916016 L 39.24844360351562 -3.174514293670654 L 107.9940338134766 5.631309032440186 L 108.6426773071289 7.286427021026611 C 161.8838043212891 143.1286010742188 295.5234375 234.3975372314453 441.1878051757812 234.3975372314453 C 444.4801025390625 234.3975372314453 447.8137817382812 234.3519592285156 451.0962219238281 234.261962890625 L 456.2780456542969 234.1199493408203 L 423.9554748535156 294.119384765625 L 464.8076171875 349.7003784179688 L 459.1659240722656 349.9252624511719 C 452.8261413574219 350.1778869628906 446.4002075195312 350.3060302734375 440.0664978027344 350.3060302734375 Z" stroke="none" fill="#fff"/>
        </g>
        <path id="Intersection_5-6" data-name="Intersection 5" d="M0,.277.252,0,66.523,8.489C119.006,141.944,249.159,236.65,401.018,236.65c3.482,0,6.943-.049,10.4-.148l-31.173,57.866.022.03C200.892,286.122,51,164.937,0,.277Z" transform="translate(39.577 0)" opacity="0.3"/>
      </g>
      <g id="Group_2-2" data-name="Group 2" transform="translate(293.726 180.319) rotate(73)">
        <g id="Intersection_3-7" data-name="Intersection 3" transform="translate(0 0.001)" fill="#2a953c">
          <path d="M 440.0664978027344 348.8060302734375 C 408.0076904296875 348.8060302734375 375.968017578125 345.5758361816406 344.8374328613281 339.2052001953125 C 314.4959106445312 332.9963684082031 284.6527404785156 323.7325439453125 256.1368408203125 311.6710815429688 C 228.138916015625 299.8297119140625 201.1333312988281 285.1712951660156 175.8702697753906 268.10302734375 C 150.8573913574219 251.2074279785156 127.328857421875 231.7947235107422 105.9383850097656 210.4042510986328 C 84.55832672119141 189.0261840820312 65.14497375488281 165.4976654052734 48.23762130737305 140.4722442626953 C 31.17267990112305 115.2122497558594 16.51497268676758 88.2066650390625 4.671561717987061 60.20566177368164 C 2.573385000228882 55.24478149414062 0.5302674174308777 50.16925048828125 -1.400967836380005 45.11995697021484 L -1.730144381523132 44.25925064086914 L -1.111261963844299 43.57660293579102 L 39.30844497680664 -1.007455468177795 L 39.83409118652344 -1.587278962135315 L 40.61032485961914 -1.487808346748352 L 106.040153503418 6.893309116363525 L 106.9217987060547 7.006250381469727 L 107.2461471557617 7.833779811859131 C 160.7105560302734 144.2457275390625 294.9114379882812 235.8975372314453 441.1878051757812 235.8975372314453 C 444.4937438964844 235.8975372314453 447.8412780761719 235.8517150878906 451.1372680664062 235.7614288330078 L 453.7282104492188 235.6903686523438 L 452.4989624023438 237.9722442626953 L 422.1849365234375 294.2432861328125 L 460.2550964355469 346.0392456054688 L 461.9270324707031 348.3140258789062 L 459.106201171875 348.4264221191406 C 452.7861938476562 348.6783142089844 446.38037109375 348.8060302734375 440.0664978027344 348.8060302734375 Z" stroke="none"/>
          <path d="M 440.0664978027344 347.3060302734375 C 446.3962097167969 347.3060302734375 452.72509765625 347.1795349121094 459.0464477539062 346.9276123046875 L 420.4143981933594 294.3671264648438 L 451.1783752441406 237.2608337402344 C 447.8560180664062 237.3518981933594 444.53173828125 237.3975372314453 441.1878051757812 237.3975372314453 C 288.8686828613281 237.3975372314453 158.3430328369141 142.3157196044922 105.8495635986328 8.381133079528809 L 40.41973876953125 1.513671850261744e-05 L 3.214757452951744e-05 44.58407211303711 C 1.931208610534668 49.6331901550293 3.94985556602478 54.64860153198242 6.053091049194336 59.62130737304688 C 17.85815048217773 87.53177642822266 32.4683837890625 114.4506607055664 49.48056030273438 139.6325378417969 C 66.33150482177734 164.5744781494141 85.6826171875 188.0291900634766 106.9990310668945 209.3435974121094 C 128.3134460449219 230.6580200195312 151.7661437988281 250.0111389160156 176.7100372314453 266.8600769042969 C 201.8899688720703 283.8722534179688 228.8088531494141 298.4844360351562 256.7212219238281 310.28955078125 C 285.1470336914062 322.3129577636719 314.8947448730469 331.5469055175781 345.1381530761719 337.7356567382812 C 376.1684875488281 344.0857849121094 408.107666015625 347.3060302734375 440.0664978027344 347.3060302734375 M 440.0664978027344 350.3060302734375 C 407.9069213867188 350.3060302734375 375.7660217285156 347.0656127929688 344.5366821289062 340.6747741699219 C 314.09814453125 334.4460754394531 284.1595764160156 325.1526184082031 255.5525054931641 313.0525512695312 C 227.4653778076172 301.1735534667969 200.3738555908203 286.4684753417969 175.0305633544922 269.3458862304688 C 149.9386138916016 252.3969573974609 126.3357391357422 232.9229583740234 104.8777389526367 211.4649047851562 C 83.43020629882812 190.0194244384766 63.95550155639648 166.4165496826172 46.9947395324707 141.31201171875 C 29.87550354003906 115.9717178344727 15.17115020751953 88.88018798828125 3.290091037750244 60.78995513916016 C 1.185091018676758 55.81313323974609 -0.8645560741424561 50.72124862670898 -2.802026748657227 45.65578079223633 L -3.460379600524902 43.93448638916016 L 39.24844360351562 -3.174514293670654 L 107.9940338134766 5.631309032440186 L 108.6426773071289 7.286427021026611 C 161.8838043212891 143.1286010742188 295.5234375 234.3975372314453 441.1878051757812 234.3975372314453 C 444.4801025390625 234.3975372314453 447.8137817382812 234.3519592285156 451.0962219238281 234.261962890625 L 456.2780456542969 234.1199493408203 L 423.9554748535156 294.119384765625 L 464.8076171875 349.7003784179688 L 459.1659240722656 349.9252624511719 C 452.8261413574219 350.1778869628906 446.4002075195312 350.3060302734375 440.0664978027344 350.3060302734375 Z" stroke="none" fill="#fff"/>
        </g>
        <path id="Intersection_5-7" data-name="Intersection 5" d="M0,.277.252,0,66.523,8.489C119.006,141.944,249.159,236.65,401.018,236.65c3.482,0,6.943-.049,10.4-.148l-31.173,57.866.022.03C200.892,286.122,51,164.937,0,.277Z" transform="translate(39.577 0)" opacity="0.3"/>
      </g>
      <g id="Group_4-2" data-name="Group 4" transform="matrix(-0.819, 0.574, -0.574, -0.819, 831.588, 212.779)">
        <g id="Intersection_3-8" data-name="Intersection 3" transform="translate(0 0.001)" fill="#cf2027">
          <path d="M 440.0664978027344 348.8060302734375 C 408.0076904296875 348.8060302734375 375.968017578125 345.5758361816406 344.8374328613281 339.2052001953125 C 314.4959106445312 332.9963684082031 284.6527404785156 323.7325439453125 256.1368408203125 311.6710815429688 C 228.138916015625 299.8297119140625 201.1333312988281 285.1712951660156 175.8702697753906 268.10302734375 C 150.8573913574219 251.2074279785156 127.328857421875 231.7947235107422 105.9383850097656 210.4042510986328 C 84.55832672119141 189.0261840820312 65.14497375488281 165.4976654052734 48.23762130737305 140.4722442626953 C 31.17267990112305 115.2122497558594 16.51497268676758 88.2066650390625 4.671561717987061 60.20566177368164 C 2.573385000228882 55.24478149414062 0.5302674174308777 50.16925048828125 -1.400967836380005 45.11995697021484 L -1.730144381523132 44.25925064086914 L -1.111261963844299 43.57660293579102 L 39.30844497680664 -1.007455468177795 L 39.83409118652344 -1.587278962135315 L 40.61032485961914 -1.487808346748352 L 106.040153503418 6.893309116363525 L 106.9217987060547 7.006250381469727 L 107.2461471557617 7.833779811859131 C 160.7105560302734 144.2457275390625 294.9114379882812 235.8975372314453 441.1878051757812 235.8975372314453 C 444.4937438964844 235.8975372314453 447.8412780761719 235.8517150878906 451.1372680664062 235.7614288330078 L 453.7282104492188 235.6903686523438 L 452.4989624023438 237.9722442626953 L 422.1849365234375 294.2432861328125 L 460.2550964355469 346.0392456054688 L 461.9270324707031 348.3140258789062 L 459.106201171875 348.4264221191406 C 452.7861938476562 348.6783142089844 446.38037109375 348.8060302734375 440.0664978027344 348.8060302734375 Z" stroke="none"/>
          <path d="M 440.0664978027344 347.3060302734375 C 446.3962097167969 347.3060302734375 452.72509765625 347.1795349121094 459.0464477539062 346.9276123046875 L 420.4143981933594 294.3671264648438 L 451.1783752441406 237.2608337402344 C 447.8560180664062 237.3518981933594 444.53173828125 237.3975372314453 441.1878051757812 237.3975372314453 C 288.8686828613281 237.3975372314453 158.3430328369141 142.3157196044922 105.8495635986328 8.381133079528809 L 40.41973876953125 1.513671850261744e-05 L 3.214757452951744e-05 44.58407211303711 C 1.931208610534668 49.6331901550293 3.94985556602478 54.64860153198242 6.053091049194336 59.62130737304688 C 17.85815048217773 87.53177642822266 32.4683837890625 114.4506607055664 49.48056030273438 139.6325378417969 C 66.33150482177734 164.5744781494141 85.6826171875 188.0291900634766 106.9990310668945 209.3435974121094 C 128.3134460449219 230.6580200195312 151.7661437988281 250.0111389160156 176.7100372314453 266.8600769042969 C 201.8899688720703 283.8722534179688 228.8088531494141 298.4844360351562 256.7212219238281 310.28955078125 C 285.1470336914062 322.3129577636719 314.8947448730469 331.5469055175781 345.1381530761719 337.7356567382812 C 376.1684875488281 344.0857849121094 408.107666015625 347.3060302734375 440.0664978027344 347.3060302734375 M 440.0664978027344 350.3060302734375 C 407.9069213867188 350.3060302734375 375.7660217285156 347.0656127929688 344.5366821289062 340.6747741699219 C 314.09814453125 334.4460754394531 284.1595764160156 325.1526184082031 255.5525054931641 313.0525512695312 C 227.4653778076172 301.1735534667969 200.3738555908203 286.4684753417969 175.0305633544922 269.3458862304688 C 149.9386138916016 252.3969573974609 126.3357391357422 232.9229583740234 104.8777389526367 211.4649047851562 C 83.43020629882812 190.0194244384766 63.95550155639648 166.4165496826172 46.9947395324707 141.31201171875 C 29.87550354003906 115.9717178344727 15.17115020751953 88.88018798828125 3.290091037750244 60.78995513916016 C 1.185091018676758 55.81313323974609 -0.8645560741424561 50.72124862670898 -2.802026748657227 45.65578079223633 L -3.460379600524902 43.93448638916016 L 39.24844360351562 -3.174514293670654 L 107.9940338134766 5.631309032440186 L 108.6426773071289 7.286427021026611 C 161.8838043212891 143.1286010742188 295.5234375 234.3975372314453 441.1878051757812 234.3975372314453 C 444.4801025390625 234.3975372314453 447.8137817382812 234.3519592285156 451.0962219238281 234.261962890625 L 456.2780456542969 234.1199493408203 L 423.9554748535156 294.119384765625 L 464.8076171875 349.7003784179688 L 459.1659240722656 349.9252624511719 C 452.8261413574219 350.1778869628906 446.4002075195312 350.3060302734375 440.0664978027344 350.3060302734375 Z" stroke="none" fill="#fff"/>
        </g>
        <path id="Intersection_5-8" data-name="Intersection 5" d="M0,.277.252,0,66.523,8.489C119.006,141.944,249.159,236.65,401.018,236.65c3.482,0,6.943-.049,10.4-.148l-31.173,57.866.022.03C200.892,286.122,51,164.937,0,.277Z" transform="translate(39.577 0)" opacity="0.3"/>
      </g>
      <g id="Group_7-2" data-name="Group 7" transform="translate(968.104 733.099) rotate(-143)">
        <g id="Intersection_3-9" data-name="Intersection 3" transform="translate(0 0.001)" fill="#ea0b8c">
          <path d="M 440.0664978027344 348.8060302734375 C 408.0076904296875 348.8060302734375 375.968017578125 345.5758361816406 344.8374328613281 339.2052001953125 C 314.4959106445312 332.9963684082031 284.6527404785156 323.7325439453125 256.1368408203125 311.6710815429688 C 228.138916015625 299.8297119140625 201.1333312988281 285.1712951660156 175.8702697753906 268.10302734375 C 150.8573913574219 251.2074279785156 127.328857421875 231.7947235107422 105.9383850097656 210.4042510986328 C 84.55832672119141 189.0261840820312 65.14497375488281 165.4976654052734 48.23762130737305 140.4722442626953 C 31.17267990112305 115.2122497558594 16.51497268676758 88.2066650390625 4.671561717987061 60.20566177368164 C 2.573385000228882 55.24478149414062 0.5302674174308777 50.16925048828125 -1.400967836380005 45.11995697021484 L -1.730144381523132 44.25925064086914 L -1.111261963844299 43.57660293579102 L 39.30844497680664 -1.007455468177795 L 39.83409118652344 -1.587278962135315 L 40.61032485961914 -1.487808346748352 L 106.040153503418 6.893309116363525 L 106.9217987060547 7.006250381469727 L 107.2461471557617 7.833779811859131 C 160.7105560302734 144.2457275390625 294.9114379882812 235.8975372314453 441.1878051757812 235.8975372314453 C 444.4937438964844 235.8975372314453 447.8412780761719 235.8517150878906 451.1372680664062 235.7614288330078 L 453.7282104492188 235.6903686523438 L 452.4989624023438 237.9722442626953 L 422.1849365234375 294.2432861328125 L 460.2550964355469 346.0392456054688 L 461.9270324707031 348.3140258789062 L 459.106201171875 348.4264221191406 C 452.7861938476562 348.6783142089844 446.38037109375 348.8060302734375 440.0664978027344 348.8060302734375 Z" stroke="none"/>
          <path d="M 440.0664978027344 347.3060302734375 C 446.3962097167969 347.3060302734375 452.72509765625 347.1795349121094 459.0464477539062 346.9276123046875 L 420.4143981933594 294.3671264648438 L 451.1783752441406 237.2608337402344 C 447.8560180664062 237.3518981933594 444.53173828125 237.3975372314453 441.1878051757812 237.3975372314453 C 288.8686828613281 237.3975372314453 158.3430328369141 142.3157196044922 105.8495635986328 8.381133079528809 L 40.41973876953125 1.513671850261744e-05 L 3.214757452951744e-05 44.58407211303711 C 1.931208610534668 49.6331901550293 3.94985556602478 54.64860153198242 6.053091049194336 59.62130737304688 C 17.85815048217773 87.53177642822266 32.4683837890625 114.4506607055664 49.48056030273438 139.6325378417969 C 66.33150482177734 164.5744781494141 85.6826171875 188.0291900634766 106.9990310668945 209.3435974121094 C 128.3134460449219 230.6580200195312 151.7661437988281 250.0111389160156 176.7100372314453 266.8600769042969 C 201.8899688720703 283.8722534179688 228.8088531494141 298.4844360351562 256.7212219238281 310.28955078125 C 285.1470336914062 322.3129577636719 314.8947448730469 331.5469055175781 345.1381530761719 337.7356567382812 C 376.1684875488281 344.0857849121094 408.107666015625 347.3060302734375 440.0664978027344 347.3060302734375 M 440.0664978027344 350.3060302734375 C 407.9069213867188 350.3060302734375 375.7660217285156 347.0656127929688 344.5366821289062 340.6747741699219 C 314.09814453125 334.4460754394531 284.1595764160156 325.1526184082031 255.5525054931641 313.0525512695312 C 227.4653778076172 301.1735534667969 200.3738555908203 286.4684753417969 175.0305633544922 269.3458862304688 C 149.9386138916016 252.3969573974609 126.3357391357422 232.9229583740234 104.8777389526367 211.4649047851562 C 83.43020629882812 190.0194244384766 63.95550155639648 166.4165496826172 46.9947395324707 141.31201171875 C 29.87550354003906 115.9717178344727 15.17115020751953 88.88018798828125 3.290091037750244 60.78995513916016 C 1.185091018676758 55.81313323974609 -0.8645560741424561 50.72124862670898 -2.802026748657227 45.65578079223633 L -3.460379600524902 43.93448638916016 L 39.24844360351562 -3.174514293670654 L 107.9940338134766 5.631309032440186 L 108.6426773071289 7.286427021026611 C 161.8838043212891 143.1286010742188 295.5234375 234.3975372314453 441.1878051757812 234.3975372314453 C 444.4801025390625 234.3975372314453 447.8137817382812 234.3519592285156 451.0962219238281 234.261962890625 L 456.2780456542969 234.1199493408203 L 423.9554748535156 294.119384765625 L 464.8076171875 349.7003784179688 L 459.1659240722656 349.9252624511719 C 452.8261413574219 350.1778869628906 446.4002075195312 350.3060302734375 440.0664978027344 350.3060302734375 Z" stroke="none" fill="#fff"/>
        </g>
        <path id="Intersection_5-9" data-name="Intersection 5" d="M0,.277.252,0,66.523,8.489C119.006,141.944,249.159,236.65,401.018,236.65c3.482,0,6.943-.049,10.4-.148l-31.173,57.866.022.03C200.892,286.122,51,164.937,0,.277Z" transform="translate(39.577 0)" opacity="0.3"/>
      </g>
      <g id="Group_11-2" data-name="Group 11" transform="translate(516.02 1021.133) rotate(-71)">
        <g id="Intersection_3-10" data-name="Intersection 3" transform="translate(0 0.001)" fill="#f6861f">
          <path d="M 440.0664978027344 348.8060302734375 C 408.0076904296875 348.8060302734375 375.968017578125 345.5758361816406 344.8374328613281 339.2052001953125 C 314.4959106445312 332.9963684082031 284.6527404785156 323.7325439453125 256.1368408203125 311.6710815429688 C 228.138916015625 299.8297119140625 201.1333312988281 285.1712951660156 175.8702697753906 268.10302734375 C 150.8573913574219 251.2074279785156 127.328857421875 231.7947235107422 105.9383850097656 210.4042510986328 C 84.55832672119141 189.0261840820312 65.14497375488281 165.4976654052734 48.23762130737305 140.4722442626953 C 31.17267990112305 115.2122497558594 16.51497268676758 88.2066650390625 4.671561717987061 60.20566177368164 C 2.573385000228882 55.24478149414062 0.5302674174308777 50.16925048828125 -1.400967836380005 45.11995697021484 L -1.730144381523132 44.25925064086914 L -1.111261963844299 43.57660293579102 L 39.30844497680664 -1.007455468177795 L 39.83409118652344 -1.587278962135315 L 40.61032485961914 -1.487808346748352 L 106.040153503418 6.893309116363525 L 106.9217987060547 7.006250381469727 L 107.2461471557617 7.833779811859131 C 160.7105560302734 144.2457275390625 294.9114379882812 235.8975372314453 441.1878051757812 235.8975372314453 C 444.4937438964844 235.8975372314453 447.8412780761719 235.8517150878906 451.1372680664062 235.7614288330078 L 453.7282104492188 235.6903686523438 L 452.4989624023438 237.9722442626953 L 422.1849365234375 294.2432861328125 L 460.2550964355469 346.0392456054688 L 461.9270324707031 348.3140258789062 L 459.106201171875 348.4264221191406 C 452.7861938476562 348.6783142089844 446.38037109375 348.8060302734375 440.0664978027344 348.8060302734375 Z" stroke="none"/>
          <path d="M 440.0664978027344 347.3060302734375 C 446.3962097167969 347.3060302734375 452.72509765625 347.1795349121094 459.0464477539062 346.9276123046875 L 420.4143981933594 294.3671264648438 L 451.1783752441406 237.2608337402344 C 447.8560180664062 237.3518981933594 444.53173828125 237.3975372314453 441.1878051757812 237.3975372314453 C 288.8686828613281 237.3975372314453 158.3430328369141 142.3157196044922 105.8495635986328 8.381133079528809 L 40.41973876953125 1.513671850261744e-05 L 3.214757452951744e-05 44.58407211303711 C 1.931208610534668 49.6331901550293 3.94985556602478 54.64860153198242 6.053091049194336 59.62130737304688 C 17.85815048217773 87.53177642822266 32.4683837890625 114.4506607055664 49.48056030273438 139.6325378417969 C 66.33150482177734 164.5744781494141 85.6826171875 188.0291900634766 106.9990310668945 209.3435974121094 C 128.3134460449219 230.6580200195312 151.7661437988281 250.0111389160156 176.7100372314453 266.8600769042969 C 201.8899688720703 283.8722534179688 228.8088531494141 298.4844360351562 256.7212219238281 310.28955078125 C 285.1470336914062 322.3129577636719 314.8947448730469 331.5469055175781 345.1381530761719 337.7356567382812 C 376.1684875488281 344.0857849121094 408.107666015625 347.3060302734375 440.0664978027344 347.3060302734375 M 440.0664978027344 350.3060302734375 C 407.9069213867188 350.3060302734375 375.7660217285156 347.0656127929688 344.5366821289062 340.6747741699219 C 314.09814453125 334.4460754394531 284.1595764160156 325.1526184082031 255.5525054931641 313.0525512695312 C 227.4653778076172 301.1735534667969 200.3738555908203 286.4684753417969 175.0305633544922 269.3458862304688 C 149.9386138916016 252.3969573974609 126.3357391357422 232.9229583740234 104.8777389526367 211.4649047851562 C 83.43020629882812 190.0194244384766 63.95550155639648 166.4165496826172 46.9947395324707 141.31201171875 C 29.87550354003906 115.9717178344727 15.17115020751953 88.88018798828125 3.290091037750244 60.78995513916016 C 1.185091018676758 55.81313323974609 -0.8645560741424561 50.72124862670898 -2.802026748657227 45.65578079223633 L -3.460379600524902 43.93448638916016 L 39.24844360351562 -3.174514293670654 L 107.9940338134766 5.631309032440186 L 108.6426773071289 7.286427021026611 C 161.8838043212891 143.1286010742188 295.5234375 234.3975372314453 441.1878051757812 234.3975372314453 C 444.4801025390625 234.3975372314453 447.8137817382812 234.3519592285156 451.0962219238281 234.261962890625 L 456.2780456542969 234.1199493408203 L 423.9554748535156 294.119384765625 L 464.8076171875 349.7003784179688 L 459.1659240722656 349.9252624511719 C 452.8261413574219 350.1778869628906 446.4002075195312 350.3060302734375 440.0664978027344 350.3060302734375 Z" stroke="none" fill="#fff"/>
        </g>
        <path id="Intersection_5-10" data-name="Intersection 5" d="M0,.277.252,0,66.523,8.489C119.006,141.944,249.159,236.65,401.018,236.65c3.482,0,6.943-.049,10.4-.148l-31.173,57.866.022.03C200.892,286.122,51,164.937,0,.277Z" transform="translate(39.577 0)" opacity="0.3"/>
      </g>
    </g>
    <g id="Group_14" data-name="Group 14" transform="translate(298.405 -156.389)">
      <g id="Group_1-3" data-name="Group 1" transform="matrix(1, 0.017, -0.017, 1, 100.411, 681.806)">
        <g id="Intersection_3-11" data-name="Intersection 3" transform="translate(0 0.001)" fill="#0077c1">
          <path d="M 440.0664978027344 348.8060302734375 C 408.0076904296875 348.8060302734375 375.968017578125 345.5758361816406 344.8374328613281 339.2052001953125 C 314.4959106445312 332.9963684082031 284.6527404785156 323.7325439453125 256.1368408203125 311.6710815429688 C 228.138916015625 299.8297119140625 201.1333312988281 285.1712951660156 175.8702697753906 268.10302734375 C 150.8573913574219 251.2074279785156 127.328857421875 231.7947235107422 105.9383850097656 210.4042510986328 C 84.55832672119141 189.0261840820312 65.14497375488281 165.4976654052734 48.23762130737305 140.4722442626953 C 31.17267990112305 115.2122497558594 16.51497268676758 88.2066650390625 4.671561717987061 60.20566177368164 C 2.573385000228882 55.24478149414062 0.5302674174308777 50.16925048828125 -1.400967836380005 45.11995697021484 L -1.730144381523132 44.25925064086914 L -1.111261963844299 43.57660293579102 L 39.30844497680664 -1.007455468177795 L 39.83409118652344 -1.587278962135315 L 40.61032485961914 -1.487808346748352 L 106.040153503418 6.893309116363525 L 106.9217987060547 7.006250381469727 L 107.2461471557617 7.833779811859131 C 160.7105560302734 144.2457275390625 294.9114379882812 235.8975372314453 441.1878051757812 235.8975372314453 C 444.4937438964844 235.8975372314453 447.8412780761719 235.8517150878906 451.1372680664062 235.7614288330078 L 453.7282104492188 235.6903686523438 L 452.4989624023438 237.9722442626953 L 422.1849365234375 294.2432861328125 L 460.2550964355469 346.0392456054688 L 461.9270324707031 348.3140258789062 L 459.106201171875 348.4264221191406 C 452.7861938476562 348.6783142089844 446.38037109375 348.8060302734375 440.0664978027344 348.8060302734375 Z" stroke="none"/>
          <path d="M 440.0664978027344 347.3060302734375 C 446.3962097167969 347.3060302734375 452.72509765625 347.1795349121094 459.0464477539062 346.9276123046875 L 420.4143981933594 294.3671264648438 L 451.1783752441406 237.2608337402344 C 447.8560180664062 237.3518981933594 444.53173828125 237.3975372314453 441.1878051757812 237.3975372314453 C 288.8686828613281 237.3975372314453 158.3430328369141 142.3157196044922 105.8495635986328 8.381133079528809 L 40.41973876953125 1.513671850261744e-05 L 3.214757452951744e-05 44.58407211303711 C 1.931208610534668 49.6331901550293 3.94985556602478 54.64860153198242 6.053091049194336 59.62130737304688 C 17.85815048217773 87.53177642822266 32.4683837890625 114.4506607055664 49.48056030273438 139.6325378417969 C 66.33150482177734 164.5744781494141 85.6826171875 188.0291900634766 106.9990310668945 209.3435974121094 C 128.3134460449219 230.6580200195312 151.7661437988281 250.0111389160156 176.7100372314453 266.8600769042969 C 201.8899688720703 283.8722534179688 228.8088531494141 298.4844360351562 256.7212219238281 310.28955078125 C 285.1470336914062 322.3129577636719 314.8947448730469 331.5469055175781 345.1381530761719 337.7356567382812 C 376.1684875488281 344.0857849121094 408.107666015625 347.3060302734375 440.0664978027344 347.3060302734375 M 440.0664978027344 350.3060302734375 C 407.9069213867188 350.3060302734375 375.7660217285156 347.0656127929688 344.5366821289062 340.6747741699219 C 314.09814453125 334.4460754394531 284.1595764160156 325.1526184082031 255.5525054931641 313.0525512695312 C 227.4653778076172 301.1735534667969 200.3738555908203 286.4684753417969 175.0305633544922 269.3458862304688 C 149.9386138916016 252.3969573974609 126.3357391357422 232.9229583740234 104.8777389526367 211.4649047851562 C 83.43020629882812 190.0194244384766 63.95550155639648 166.4165496826172 46.9947395324707 141.31201171875 C 29.87550354003906 115.9717178344727 15.17115020751953 88.88018798828125 3.290091037750244 60.78995513916016 C 1.185091018676758 55.81313323974609 -0.8645560741424561 50.72124862670898 -2.802026748657227 45.65578079223633 L -3.460379600524902 43.93448638916016 L 39.24844360351562 -3.174514293670654 L 107.9940338134766 5.631309032440186 L 108.6426773071289 7.286427021026611 C 161.8838043212891 143.1286010742188 295.5234375 234.3975372314453 441.1878051757812 234.3975372314453 C 444.4801025390625 234.3975372314453 447.8137817382812 234.3519592285156 451.0962219238281 234.261962890625 L 456.2780456542969 234.1199493408203 L 423.9554748535156 294.119384765625 L 464.8076171875 349.7003784179688 L 459.1659240722656 349.9252624511719 C 452.8261413574219 350.1778869628906 446.4002075195312 350.3060302734375 440.0664978027344 350.3060302734375 Z" stroke="none" fill="#fff"/>
        </g>
        <path id="Intersection_5-11" data-name="Intersection 5" d="M0,.277.252,0,66.523,8.489C119.006,141.944,249.159,236.65,401.018,236.65c3.482,0,6.943-.049,10.4-.148l-31.173,57.866.022.03C200.892,286.122,51,164.937,0,.277Z" transform="translate(39.577 0)" opacity="0.3"/>
      </g>
      <g id="Group_2-3" data-name="Group 2" transform="translate(293.726 180.319) rotate(73)">
        <g id="Intersection_3-12" data-name="Intersection 3" transform="translate(0 0.001)" fill="#2a953c">
          <path d="M 440.0664978027344 348.8060302734375 C 408.0076904296875 348.8060302734375 375.968017578125 345.5758361816406 344.8374328613281 339.2052001953125 C 314.4959106445312 332.9963684082031 284.6527404785156 323.7325439453125 256.1368408203125 311.6710815429688 C 228.138916015625 299.8297119140625 201.1333312988281 285.1712951660156 175.8702697753906 268.10302734375 C 150.8573913574219 251.2074279785156 127.328857421875 231.7947235107422 105.9383850097656 210.4042510986328 C 84.55832672119141 189.0261840820312 65.14497375488281 165.4976654052734 48.23762130737305 140.4722442626953 C 31.17267990112305 115.2122497558594 16.51497268676758 88.2066650390625 4.671561717987061 60.20566177368164 C 2.573385000228882 55.24478149414062 0.5302674174308777 50.16925048828125 -1.400967836380005 45.11995697021484 L -1.730144381523132 44.25925064086914 L -1.111261963844299 43.57660293579102 L 39.30844497680664 -1.007455468177795 L 39.83409118652344 -1.587278962135315 L 40.61032485961914 -1.487808346748352 L 106.040153503418 6.893309116363525 L 106.9217987060547 7.006250381469727 L 107.2461471557617 7.833779811859131 C 160.7105560302734 144.2457275390625 294.9114379882812 235.8975372314453 441.1878051757812 235.8975372314453 C 444.4937438964844 235.8975372314453 447.8412780761719 235.8517150878906 451.1372680664062 235.7614288330078 L 453.7282104492188 235.6903686523438 L 452.4989624023438 237.9722442626953 L 422.1849365234375 294.2432861328125 L 460.2550964355469 346.0392456054688 L 461.9270324707031 348.3140258789062 L 459.106201171875 348.4264221191406 C 452.7861938476562 348.6783142089844 446.38037109375 348.8060302734375 440.0664978027344 348.8060302734375 Z" stroke="none"/>
          <path d="M 440.0664978027344 347.3060302734375 C 446.3962097167969 347.3060302734375 452.72509765625 347.1795349121094 459.0464477539062 346.9276123046875 L 420.4143981933594 294.3671264648438 L 451.1783752441406 237.2608337402344 C 447.8560180664062 237.3518981933594 444.53173828125 237.3975372314453 441.1878051757812 237.3975372314453 C 288.8686828613281 237.3975372314453 158.3430328369141 142.3157196044922 105.8495635986328 8.381133079528809 L 40.41973876953125 1.513671850261744e-05 L 3.214757452951744e-05 44.58407211303711 C 1.931208610534668 49.6331901550293 3.94985556602478 54.64860153198242 6.053091049194336 59.62130737304688 C 17.85815048217773 87.53177642822266 32.4683837890625 114.4506607055664 49.48056030273438 139.6325378417969 C 66.33150482177734 164.5744781494141 85.6826171875 188.0291900634766 106.9990310668945 209.3435974121094 C 128.3134460449219 230.6580200195312 151.7661437988281 250.0111389160156 176.7100372314453 266.8600769042969 C 201.8899688720703 283.8722534179688 228.8088531494141 298.4844360351562 256.7212219238281 310.28955078125 C 285.1470336914062 322.3129577636719 314.8947448730469 331.5469055175781 345.1381530761719 337.7356567382812 C 376.1684875488281 344.0857849121094 408.107666015625 347.3060302734375 440.0664978027344 347.3060302734375 M 440.0664978027344 350.3060302734375 C 407.9069213867188 350.3060302734375 375.7660217285156 347.0656127929688 344.5366821289062 340.6747741699219 C 314.09814453125 334.4460754394531 284.1595764160156 325.1526184082031 255.5525054931641 313.0525512695312 C 227.4653778076172 301.1735534667969 200.3738555908203 286.4684753417969 175.0305633544922 269.3458862304688 C 149.9386138916016 252.3969573974609 126.3357391357422 232.9229583740234 104.8777389526367 211.4649047851562 C 83.43020629882812 190.0194244384766 63.95550155639648 166.4165496826172 46.9947395324707 141.31201171875 C 29.87550354003906 115.9717178344727 15.17115020751953 88.88018798828125 3.290091037750244 60.78995513916016 C 1.185091018676758 55.81313323974609 -0.8645560741424561 50.72124862670898 -2.802026748657227 45.65578079223633 L -3.460379600524902 43.93448638916016 L 39.24844360351562 -3.174514293670654 L 107.9940338134766 5.631309032440186 L 108.6426773071289 7.286427021026611 C 161.8838043212891 143.1286010742188 295.5234375 234.3975372314453 441.1878051757812 234.3975372314453 C 444.4801025390625 234.3975372314453 447.8137817382812 234.3519592285156 451.0962219238281 234.261962890625 L 456.2780456542969 234.1199493408203 L 423.9554748535156 294.119384765625 L 464.8076171875 349.7003784179688 L 459.1659240722656 349.9252624511719 C 452.8261413574219 350.1778869628906 446.4002075195312 350.3060302734375 440.0664978027344 350.3060302734375 Z" stroke="none" fill="#fff"/>
        </g>
        <path id="Intersection_5-12" data-name="Intersection 5" d="M0,.277.252,0,66.523,8.489C119.006,141.944,249.159,236.65,401.018,236.65c3.482,0,6.943-.049,10.4-.148l-31.173,57.866.022.03C200.892,286.122,51,164.937,0,.277Z" transform="translate(39.577 0)" opacity="0.3"/>
      </g>
      <g id="Group_4-3" data-name="Group 4" transform="matrix(-0.819, 0.574, -0.574, -0.819, 831.588, 212.779)">
        <g id="Intersection_3-13" data-name="Intersection 3" transform="translate(0 0.001)" fill="#cf2027">
          <path d="M 440.0664978027344 348.8060302734375 C 408.0076904296875 348.8060302734375 375.968017578125 345.5758361816406 344.8374328613281 339.2052001953125 C 314.4959106445312 332.9963684082031 284.6527404785156 323.7325439453125 256.1368408203125 311.6710815429688 C 228.138916015625 299.8297119140625 201.1333312988281 285.1712951660156 175.8702697753906 268.10302734375 C 150.8573913574219 251.2074279785156 127.328857421875 231.7947235107422 105.9383850097656 210.4042510986328 C 84.55832672119141 189.0261840820312 65.14497375488281 165.4976654052734 48.23762130737305 140.4722442626953 C 31.17267990112305 115.2122497558594 16.51497268676758 88.2066650390625 4.671561717987061 60.20566177368164 C 2.573385000228882 55.24478149414062 0.5302674174308777 50.16925048828125 -1.400967836380005 45.11995697021484 L -1.730144381523132 44.25925064086914 L -1.111261963844299 43.57660293579102 L 39.30844497680664 -1.007455468177795 L 39.83409118652344 -1.587278962135315 L 40.61032485961914 -1.487808346748352 L 106.040153503418 6.893309116363525 L 106.9217987060547 7.006250381469727 L 107.2461471557617 7.833779811859131 C 160.7105560302734 144.2457275390625 294.9114379882812 235.8975372314453 441.1878051757812 235.8975372314453 C 444.4937438964844 235.8975372314453 447.8412780761719 235.8517150878906 451.1372680664062 235.7614288330078 L 453.7282104492188 235.6903686523438 L 452.4989624023438 237.9722442626953 L 422.1849365234375 294.2432861328125 L 460.2550964355469 346.0392456054688 L 461.9270324707031 348.3140258789062 L 459.106201171875 348.4264221191406 C 452.7861938476562 348.6783142089844 446.38037109375 348.8060302734375 440.0664978027344 348.8060302734375 Z" stroke="none"/>
          <path d="M 440.0664978027344 347.3060302734375 C 446.3962097167969 347.3060302734375 452.72509765625 347.1795349121094 459.0464477539062 346.9276123046875 L 420.4143981933594 294.3671264648438 L 451.1783752441406 237.2608337402344 C 447.8560180664062 237.3518981933594 444.53173828125 237.3975372314453 441.1878051757812 237.3975372314453 C 288.8686828613281 237.3975372314453 158.3430328369141 142.3157196044922 105.8495635986328 8.381133079528809 L 40.41973876953125 1.513671850261744e-05 L 3.214757452951744e-05 44.58407211303711 C 1.931208610534668 49.6331901550293 3.94985556602478 54.64860153198242 6.053091049194336 59.62130737304688 C 17.85815048217773 87.53177642822266 32.4683837890625 114.4506607055664 49.48056030273438 139.6325378417969 C 66.33150482177734 164.5744781494141 85.6826171875 188.0291900634766 106.9990310668945 209.3435974121094 C 128.3134460449219 230.6580200195312 151.7661437988281 250.0111389160156 176.7100372314453 266.8600769042969 C 201.8899688720703 283.8722534179688 228.8088531494141 298.4844360351562 256.7212219238281 310.28955078125 C 285.1470336914062 322.3129577636719 314.8947448730469 331.5469055175781 345.1381530761719 337.7356567382812 C 376.1684875488281 344.0857849121094 408.107666015625 347.3060302734375 440.0664978027344 347.3060302734375 M 440.0664978027344 350.3060302734375 C 407.9069213867188 350.3060302734375 375.7660217285156 347.0656127929688 344.5366821289062 340.6747741699219 C 314.09814453125 334.4460754394531 284.1595764160156 325.1526184082031 255.5525054931641 313.0525512695312 C 227.4653778076172 301.1735534667969 200.3738555908203 286.4684753417969 175.0305633544922 269.3458862304688 C 149.9386138916016 252.3969573974609 126.3357391357422 232.9229583740234 104.8777389526367 211.4649047851562 C 83.43020629882812 190.0194244384766 63.95550155639648 166.4165496826172 46.9947395324707 141.31201171875 C 29.87550354003906 115.9717178344727 15.17115020751953 88.88018798828125 3.290091037750244 60.78995513916016 C 1.185091018676758 55.81313323974609 -0.8645560741424561 50.72124862670898 -2.802026748657227 45.65578079223633 L -3.460379600524902 43.93448638916016 L 39.24844360351562 -3.174514293670654 L 107.9940338134766 5.631309032440186 L 108.6426773071289 7.286427021026611 C 161.8838043212891 143.1286010742188 295.5234375 234.3975372314453 441.1878051757812 234.3975372314453 C 444.4801025390625 234.3975372314453 447.8137817382812 234.3519592285156 451.0962219238281 234.261962890625 L 456.2780456542969 234.1199493408203 L 423.9554748535156 294.119384765625 L 464.8076171875 349.7003784179688 L 459.1659240722656 349.9252624511719 C 452.8261413574219 350.1778869628906 446.4002075195312 350.3060302734375 440.0664978027344 350.3060302734375 Z" stroke="none" fill="#fff"/>
        </g>
        <path id="Intersection_5-13" data-name="Intersection 5" d="M0,.277.252,0,66.523,8.489C119.006,141.944,249.159,236.65,401.018,236.65c3.482,0,6.943-.049,10.4-.148l-31.173,57.866.022.03C200.892,286.122,51,164.937,0,.277Z" transform="translate(39.577 0)" opacity="0.3"/>
      </g>
      <g id="Group_7-3" data-name="Group 7" transform="translate(968.104 733.099) rotate(-143)">
        <g id="Intersection_3-14" data-name="Intersection 3" transform="translate(0 0.001)" fill="#ea0b8c">
          <path d="M 440.0664978027344 348.8060302734375 C 408.0076904296875 348.8060302734375 375.968017578125 345.5758361816406 344.8374328613281 339.2052001953125 C 314.4959106445312 332.9963684082031 284.6527404785156 323.7325439453125 256.1368408203125 311.6710815429688 C 228.138916015625 299.8297119140625 201.1333312988281 285.1712951660156 175.8702697753906 268.10302734375 C 150.8573913574219 251.2074279785156 127.328857421875 231.7947235107422 105.9383850097656 210.4042510986328 C 84.55832672119141 189.0261840820312 65.14497375488281 165.4976654052734 48.23762130737305 140.4722442626953 C 31.17267990112305 115.2122497558594 16.51497268676758 88.2066650390625 4.671561717987061 60.20566177368164 C 2.573385000228882 55.24478149414062 0.5302674174308777 50.16925048828125 -1.400967836380005 45.11995697021484 L -1.730144381523132 44.25925064086914 L -1.111261963844299 43.57660293579102 L 39.30844497680664 -1.007455468177795 L 39.83409118652344 -1.587278962135315 L 40.61032485961914 -1.487808346748352 L 106.040153503418 6.893309116363525 L 106.9217987060547 7.006250381469727 L 107.2461471557617 7.833779811859131 C 160.7105560302734 144.2457275390625 294.9114379882812 235.8975372314453 441.1878051757812 235.8975372314453 C 444.4937438964844 235.8975372314453 447.8412780761719 235.8517150878906 451.1372680664062 235.7614288330078 L 453.7282104492188 235.6903686523438 L 452.4989624023438 237.9722442626953 L 422.1849365234375 294.2432861328125 L 460.2550964355469 346.0392456054688 L 461.9270324707031 348.3140258789062 L 459.106201171875 348.4264221191406 C 452.7861938476562 348.6783142089844 446.38037109375 348.8060302734375 440.0664978027344 348.8060302734375 Z" stroke="none"/>
          <path d="M 440.0664978027344 347.3060302734375 C 446.3962097167969 347.3060302734375 452.72509765625 347.1795349121094 459.0464477539062 346.9276123046875 L 420.4143981933594 294.3671264648438 L 451.1783752441406 237.2608337402344 C 447.8560180664062 237.3518981933594 444.53173828125 237.3975372314453 441.1878051757812 237.3975372314453 C 288.8686828613281 237.3975372314453 158.3430328369141 142.3157196044922 105.8495635986328 8.381133079528809 L 40.41973876953125 1.513671850261744e-05 L 3.214757452951744e-05 44.58407211303711 C 1.931208610534668 49.6331901550293 3.94985556602478 54.64860153198242 6.053091049194336 59.62130737304688 C 17.85815048217773 87.53177642822266 32.4683837890625 114.4506607055664 49.48056030273438 139.6325378417969 C 66.33150482177734 164.5744781494141 85.6826171875 188.0291900634766 106.9990310668945 209.3435974121094 C 128.3134460449219 230.6580200195312 151.7661437988281 250.0111389160156 176.7100372314453 266.8600769042969 C 201.8899688720703 283.8722534179688 228.8088531494141 298.4844360351562 256.7212219238281 310.28955078125 C 285.1470336914062 322.3129577636719 314.8947448730469 331.5469055175781 345.1381530761719 337.7356567382812 C 376.1684875488281 344.0857849121094 408.107666015625 347.3060302734375 440.0664978027344 347.3060302734375 M 440.0664978027344 350.3060302734375 C 407.9069213867188 350.3060302734375 375.7660217285156 347.0656127929688 344.5366821289062 340.6747741699219 C 314.09814453125 334.4460754394531 284.1595764160156 325.1526184082031 255.5525054931641 313.0525512695312 C 227.4653778076172 301.1735534667969 200.3738555908203 286.4684753417969 175.0305633544922 269.3458862304688 C 149.9386138916016 252.3969573974609 126.3357391357422 232.9229583740234 104.8777389526367 211.4649047851562 C 83.43020629882812 190.0194244384766 63.95550155639648 166.4165496826172 46.9947395324707 141.31201171875 C 29.87550354003906 115.9717178344727 15.17115020751953 88.88018798828125 3.290091037750244 60.78995513916016 C 1.185091018676758 55.81313323974609 -0.8645560741424561 50.72124862670898 -2.802026748657227 45.65578079223633 L -3.460379600524902 43.93448638916016 L 39.24844360351562 -3.174514293670654 L 107.9940338134766 5.631309032440186 L 108.6426773071289 7.286427021026611 C 161.8838043212891 143.1286010742188 295.5234375 234.3975372314453 441.1878051757812 234.3975372314453 C 444.4801025390625 234.3975372314453 447.8137817382812 234.3519592285156 451.0962219238281 234.261962890625 L 456.2780456542969 234.1199493408203 L 423.9554748535156 294.119384765625 L 464.8076171875 349.7003784179688 L 459.1659240722656 349.9252624511719 C 452.8261413574219 350.1778869628906 446.4002075195312 350.3060302734375 440.0664978027344 350.3060302734375 Z" stroke="none" fill="#fff"/>
        </g>
        <path id="Intersection_5-14" data-name="Intersection 5" d="M0,.277.252,0,66.523,8.489C119.006,141.944,249.159,236.65,401.018,236.65c3.482,0,6.943-.049,10.4-.148l-31.173,57.866.022.03C200.892,286.122,51,164.937,0,.277Z" transform="translate(39.577 0)" opacity="0.3"/>
      </g>
      <g id="Group_11-3" data-name="Group 11" transform="translate(516.02 1021.133) rotate(-71)">
        <g id="Intersection_3-15" data-name="Intersection 3" transform="translate(0 0.001)" fill="#f6861f">
          <path d="M 440.0664978027344 348.8060302734375 C 408.0076904296875 348.8060302734375 375.968017578125 345.5758361816406 344.8374328613281 339.2052001953125 C 314.4959106445312 332.9963684082031 284.6527404785156 323.7325439453125 256.1368408203125 311.6710815429688 C 228.138916015625 299.8297119140625 201.1333312988281 285.1712951660156 175.8702697753906 268.10302734375 C 150.8573913574219 251.2074279785156 127.328857421875 231.7947235107422 105.9383850097656 210.4042510986328 C 84.55832672119141 189.0261840820312 65.14497375488281 165.4976654052734 48.23762130737305 140.4722442626953 C 31.17267990112305 115.2122497558594 16.51497268676758 88.2066650390625 4.671561717987061 60.20566177368164 C 2.573385000228882 55.24478149414062 0.5302674174308777 50.16925048828125 -1.400967836380005 45.11995697021484 L -1.730144381523132 44.25925064086914 L -1.111261963844299 43.57660293579102 L 39.30844497680664 -1.007455468177795 L 39.83409118652344 -1.587278962135315 L 40.61032485961914 -1.487808346748352 L 106.040153503418 6.893309116363525 L 106.9217987060547 7.006250381469727 L 107.2461471557617 7.833779811859131 C 160.7105560302734 144.2457275390625 294.9114379882812 235.8975372314453 441.1878051757812 235.8975372314453 C 444.4937438964844 235.8975372314453 447.8412780761719 235.8517150878906 451.1372680664062 235.7614288330078 L 453.7282104492188 235.6903686523438 L 452.4989624023438 237.9722442626953 L 422.1849365234375 294.2432861328125 L 460.2550964355469 346.0392456054688 L 461.9270324707031 348.3140258789062 L 459.106201171875 348.4264221191406 C 452.7861938476562 348.6783142089844 446.38037109375 348.8060302734375 440.0664978027344 348.8060302734375 Z" stroke="none"/>
          <path d="M 440.0664978027344 347.3060302734375 C 446.3962097167969 347.3060302734375 452.72509765625 347.1795349121094 459.0464477539062 346.9276123046875 L 420.4143981933594 294.3671264648438 L 451.1783752441406 237.2608337402344 C 447.8560180664062 237.3518981933594 444.53173828125 237.3975372314453 441.1878051757812 237.3975372314453 C 288.8686828613281 237.3975372314453 158.3430328369141 142.3157196044922 105.8495635986328 8.381133079528809 L 40.41973876953125 1.513671850261744e-05 L 3.214757452951744e-05 44.58407211303711 C 1.931208610534668 49.6331901550293 3.94985556602478 54.64860153198242 6.053091049194336 59.62130737304688 C 17.85815048217773 87.53177642822266 32.4683837890625 114.4506607055664 49.48056030273438 139.6325378417969 C 66.33150482177734 164.5744781494141 85.6826171875 188.0291900634766 106.9990310668945 209.3435974121094 C 128.3134460449219 230.6580200195312 151.7661437988281 250.0111389160156 176.7100372314453 266.8600769042969 C 201.8899688720703 283.8722534179688 228.8088531494141 298.4844360351562 256.7212219238281 310.28955078125 C 285.1470336914062 322.3129577636719 314.8947448730469 331.5469055175781 345.1381530761719 337.7356567382812 C 376.1684875488281 344.0857849121094 408.107666015625 347.3060302734375 440.0664978027344 347.3060302734375 M 440.0664978027344 350.3060302734375 C 407.9069213867188 350.3060302734375 375.7660217285156 347.0656127929688 344.5366821289062 340.6747741699219 C 314.09814453125 334.4460754394531 284.1595764160156 325.1526184082031 255.5525054931641 313.0525512695312 C 227.4653778076172 301.1735534667969 200.3738555908203 286.4684753417969 175.0305633544922 269.3458862304688 C 149.9386138916016 252.3969573974609 126.3357391357422 232.9229583740234 104.8777389526367 211.4649047851562 C 83.43020629882812 190.0194244384766 63.95550155639648 166.4165496826172 46.9947395324707 141.31201171875 C 29.87550354003906 115.9717178344727 15.17115020751953 88.88018798828125 3.290091037750244 60.78995513916016 C 1.185091018676758 55.81313323974609 -0.8645560741424561 50.72124862670898 -2.802026748657227 45.65578079223633 L -3.460379600524902 43.93448638916016 L 39.24844360351562 -3.174514293670654 L 107.9940338134766 5.631309032440186 L 108.6426773071289 7.286427021026611 C 161.8838043212891 143.1286010742188 295.5234375 234.3975372314453 441.1878051757812 234.3975372314453 C 444.4801025390625 234.3975372314453 447.8137817382812 234.3519592285156 451.0962219238281 234.261962890625 L 456.2780456542969 234.1199493408203 L 423.9554748535156 294.119384765625 L 464.8076171875 349.7003784179688 L 459.1659240722656 349.9252624511719 C 452.8261413574219 350.1778869628906 446.4002075195312 350.3060302734375 440.0664978027344 350.3060302734375 Z" stroke="none" fill="#fff"/>
        </g>
        <path id="Intersection_5-15" data-name="Intersection 5" d="M0,.277.252,0,66.523,8.489C119.006,141.944,249.159,236.65,401.018,236.65c3.482,0,6.943-.049,10.4-.148l-31.173,57.866.022.03C200.892,286.122,51,164.937,0,.277Z" transform="translate(39.577 0)" opacity="0.3"/>
      </g>
    </g>
  </g>
</svg>
